<svg xmlns="http://www.w3.org/2000/svg" viewBox="0 0 19.63 19.63"><defs><style>.cls-1{fill:#fff;}</style></defs><title>Asset 1</title><g id="Layer_2" data-name="Layer 2"><g id="Layer_1-2" data-name="Layer 1"><path class="cls-1" d="M2.52,0H17.11a2.53,2.53,0,0,1,2.52,2.52V17.11a2.53,2.53,0,0,1-2.52,2.52H2.52A2.53,2.53,0,0,1,0,17.11V2.52A2.53,2.53,0,0,1,2.52,0ZM14.3,2.18a.89.89,0,0,0-.88.89V5.18a.89.89,0,0,0,.88.88h2.22a.89.89,0,0,0,.88-.88V3.07a.89.89,0,0,0-.88-.89ZM17.41,8.3H15.69A5.74,5.74,0,0,1,15.94,10a6,6,0,0,1-6.1,5.91A6,6,0,0,1,3.73,10,5.77,5.77,0,0,1,4,8.3H2.18V16.6a.78.78,0,0,0,.78.78H16.64a.78.78,0,0,0,.78-.78ZM9.84,6A3.88,3.88,0,0,0,5.89,9.78,3.88,3.88,0,0,0,9.84,13.6a3.88,3.88,0,0,0,3.94-3.82A3.88,3.88,0,0,0,9.84,6Z"/></g></g></svg>