<?xml version="1.0" encoding="utf-8"?>
<!-- Generator: Adobe Illustrator 16.0.0, SVG Export Plug-In . SVG Version: 6.00 Build 0)  -->
<!DOCTYPE svg PUBLIC "-//W3C//DTD SVG 1.1//EN" "http://www.w3.org/Graphics/SVG/1.1/DTD/svg11.dtd">
<svg version="1.1" id="Layer_1" xmlns="http://www.w3.org/2000/svg" xmlns:xlink="http://www.w3.org/1999/xlink" x="0px" y="0px"
	 width="1024px" height="1024px" viewBox="0 0 1024 1024" enable-background="new 0 0 1024 1024" xml:space="preserve">
<text transform="matrix(1 0 1.000000e-05 1 182.3052 486.1855)"><tspan x="0" y="0" fill="#064C80" font-family="'HCHumanTouchUpper-Regular'" font-size="302.9799" letter-spacing="-6">N</tspan><tspan x="208.753" y="0" fill="#064C80" font-family="'HCHumanTouchLower-Regular'" font-size="302.9799" letter-spacing="-6">ice </tspan><tspan x="94.077" y="226.854" fill="#064C80" font-family="'HCHumanTouchLower-Regular'" font-size="302.9799" letter-spacing="-6">try</tspan><tspan x="545.809" y="226.854" fill="#064C80" font-family="'HCHumanTouchLower-Regular'" font-size="302.9799" letter-spacing="24"> </tspan></text>
<g>
	<path fill="#E81D26" d="M771.557,672.851l0.013-0.018c-0.03-0.034-0.064-0.069-0.101-0.104
		C771.496,672.768,771.526,672.808,771.557,672.851z"/>
	<path fill="#E81D26" d="M793.21,689.329c0.407,0.121,0.815,0.243,1.219,0.364c0.261-0.025,0.521-0.053,0.776-0.078l-0.029-0.017
		c-0.238,0.021-0.474,0.047-0.709,0.069c-0.407-0.122-0.814-0.248-1.223-0.369L793.21,689.329z"/>
	<polygon fill="#E81D26" points="803.606,691.994 803.74,692.038 803.648,691.96 	"/>
	<path fill="#E81D26" d="M794.16,703.372l0.042,0.021c0.244-0.021,0.487-0.043,0.729-0.062l0.196,0.062l-0.156-0.087
		C794.702,703.328,794.429,703.351,794.16,703.372z"/>
	<path fill="#E81D26" d="M847.553,635.137c-0.03-0.017-0.062-0.029-0.092-0.043c-0.225-0.135-0.455-0.264-0.685-0.395l-0.04,0.029
		c0.23,0.131,0.46,0.262,0.69,0.396C847.457,635.137,847.51,635.133,847.553,635.137z"/>
	<path fill="#E81D26" d="M847.553,635.137c0.182,0.088,0.364,0.174,0.547,0.266C848.217,635.002,847.809,635.146,847.553,635.137z"
		/>
	<path fill="#E81D26" d="M762.792,646.949l-0.134-0.096c-0.23-0.139-0.46-0.273-0.695-0.412l-0.277-0.044l0.239,0.079
		c0.233,0.13,0.473,0.264,0.708,0.398L762.792,646.949z"/>
	<polygon fill="#E81D26" points="769.252,650.257 769.291,650.227 769.144,650.162 	"/>
	<path fill="#E81D26" d="M828.674,677.531c0.031,0.051,0.062,0.104,0.087,0.155l0.031-0.021
		C828.752,677.622,828.714,677.573,828.674,677.531z"/>
	<path fill="#E81D26" d="M849.068,684.381l0.034-0.035c-0.034-0.009-0.03-0.018-0.062-0.026
		C849.05,684.346,849.06,684.354,849.068,684.381z"/>
	<path fill="#E81D26" d="M849.041,684.319c-0.013-0.062-0.025-0.13-0.047-0.134C848.803,684.18,848.842,684.237,849.041,684.319z"/>
	<polygon fill="#E81D26" points="819.723,686.664 819.844,686.521 819.814,686.508 	"/>
	<path fill="#E81D26" d="M854.315,688c0.065-0.038,0.127-0.077,0.187-0.112c-0.013-0.009-0.025-0.018-0.043-0.025
		C854.415,687.909,854.364,687.957,854.315,688z"/>
	<path fill="#E81D26" d="M835.585,684.129c0.034-0.018,0.074-0.034,0.112-0.053c0.031-0.018,0.057-0.03,0.087-0.052
		c-0.043,0.009-0.087,0.018-0.125,0.026C835.632,684.076,835.606,684.104,835.585,684.129z"/>
	<path fill="#E81D26" d="M835.784,684.024c0.239-0.026,0.496-0.044,0.695-0.121c0.187-0.078,0.062-0.256-0.148-0.2
		C836.123,683.76,835.958,683.906,835.784,684.024z"/>
	<path fill="#E81D26" d="M835.523,684.189c0.027-0.018,0.04-0.044,0.062-0.061c-0.083,0.034-0.157,0.069-0.235,0.1
		C835.411,684.216,835.48,684.216,835.523,684.189z"/>
	<path fill="#E81D26" d="M810.246,678.989c-0.116-0.078-0.233-0.156-0.35-0.239C809.835,678.973,810.078,678.949,810.246,678.989z"
		/>
	<path fill="#E81D26" d="M810.36,679.016c-0.022-0.021-0.074-0.018-0.114-0.026c0.027,0.018,0.053,0.034,0.079,0.052L810.36,679.016
		z"/>
	<path fill="#E81D26" d="M811.176,703.086c0.352-0.317-0.086-0.313-0.291-0.404C810.984,702.816,811.081,702.95,811.176,703.086z"/>
	<path fill="#E81D26" d="M810.808,702.643c0.018,0.018,0.052,0.025,0.077,0.039c-0.013-0.021-0.025-0.043-0.043-0.064
		L810.808,702.643z"/>
	<path fill="#E81D26" d="M789.676,691.829C789.732,691.795,789.719,691.761,789.676,691.829L789.676,691.829z"/>
	<path fill="#E81D26" d="M789.451,691.824c-0.07-0.021-0.166-0.017-0.253-0.021c0.147,0.03,0.295,0.062,0.443,0.088
		c0.013-0.035,0.021-0.045,0.034-0.062C789.636,691.855,789.576,691.869,789.451,691.824z"/>
	<path fill="#E81D26" d="M788.925,691.786c0.092,0.004,0.179,0.017,0.273,0.017c-0.078-0.013-0.161-0.029-0.243-0.042
		L788.925,691.786z"/>
	<path fill="#E81D26" d="M814.684,697.924c0.047,0.025,0.174-0.018,0.261-0.03c-0.104-0.213-0.378-0.19-0.626-0.208
		C814.436,697.768,814.548,697.854,814.684,697.924z"/>
	<path fill="#E81D26" d="M814.149,697.589c-0.096-0.143-0.195-0.29-0.295-0.438C813.46,697.494,813.924,697.494,814.149,697.589z"/>
	<path fill="#E81D26" d="M814.149,697.589c0.017,0.031,0.04,0.058,0.057,0.087c0.034,0.005,0.074,0.005,0.112,0.01
		c-0.021-0.019-0.047-0.031-0.069-0.044C814.232,697.62,814.184,697.607,814.149,697.589z"/>
	<path fill="#E81D26" d="M794.09,701.267c-0.161-0.152-0.273-0.355-0.49-0.451c-0.187-0.078-0.408,0.091-0.261,0.199
		c0.179,0.13,0.496,0.174,0.747,0.257c0.078,0.1,0.152,0.194,0.23,0.29C794.673,701.301,794.264,701.326,794.09,701.267z"/>
	<path fill="#E81D26" d="M775.095,703.493c-0.009-0.004-0.021-0.009-0.03-0.013l-0.009,0.029L775.095,703.493z"/>
	<path fill="#E81D26" d="M774.816,702.804c-0.06-0.022-0.248,0.025-0.27,0.06c-0.187,0.348,0.21,0.469,0.518,0.617
		C775.13,703.229,775.276,702.955,774.816,702.804z"/>
	<path fill="#E81D26" d="M792.559,706.944c0.009,0.013,0.018,0.021,0.025,0.034c0.026,0.015,0.056,0.022,0.087,0.036
		c-0.013-0.027-0.031-0.049-0.048-0.07C792.602,706.944,792.584,706.944,792.559,706.944z"/>
	<path fill="#E81D26" d="M792.089,706.631c-0.039,0.006-0.139,0.105-0.121,0.136c0.1,0.19,0.343,0.19,0.591,0.178
		C792.477,706.792,792.406,706.628,792.089,706.631z"/>
	<path fill="#E81D26" d="M792.992,707.482c0.165,0.104,0.442-0.053,0.312-0.178c-0.14-0.135-0.404-0.203-0.634-0.29
		C792.763,707.178,792.822,707.37,792.992,707.482z"/>
	<path fill="#E81D26" d="M797.193,690.991c-0.082-0.009-0.324,0.17-0.308,0.223c0.1,0.303,0.521,0.282,0.863,0.337
		C797.681,691.309,797.649,691.04,797.193,690.991z"/>
	<path fill="#E81D26" d="M797.749,691.551c0.006,0.009,0.009,0.021,0.009,0.021l0.283,0.036l-0.239-0.049
		C797.785,691.556,797.768,691.551,797.749,691.551z"/>
	<path fill="#E81D26" d="M826.708,675.234c-0.021-0.014-0.065-0.014-0.096-0.018c0.021,0.018,0.043,0.031,0.064,0.044
		L826.708,675.234z"/>
	<path fill="#E81D26" d="M826.612,675.217c-0.182-0.121-0.364-0.247-0.547-0.369C825.818,675.295,826.339,675.161,826.612,675.217z"
		/>
	<path fill="#E81D26" d="M817.448,677.184c-0.572-0.025-0.625,0.256-0.693,0.525c0.342-0.078,0.837,0.013,0.876-0.392
		C817.635,677.271,817.518,677.188,817.448,677.184z"/>
	<path fill="#E81D26" d="M816.312,677.868c0.06-0.008,0.13-0.017,0.183-0.038c0.017-0.009,0.034-0.021,0.051-0.03
		C816.469,677.826,816.39,677.848,816.312,677.868z"/>
	<path fill="#E81D26" d="M816.755,677.709c-0.019,0.004-0.04,0.004-0.058,0.004c-0.053,0.034-0.1,0.061-0.152,0.087
		c0.065-0.019,0.131-0.039,0.197-0.057L816.755,677.709z"/>
	<path fill="#E81D26" d="M796.326,687.084c0.252,0.4,0.725,0.227,1.155,0.179c-0.252-0.242-0.447-0.564-1.064-0.351
		C796.36,686.934,796.299,687.042,796.326,687.084z"/>
	<path fill="#E81D26" d="M798.262,687.718c0.065-0.008,0.174-0.104,0.165-0.146c-0.073-0.369-0.5-0.273-0.852-0.282
		C797.646,687.54,797.724,687.792,798.262,687.718z"/>
	<path fill="#E81D26" d="M797.481,687.263c0.013,0.008,0.021,0.017,0.03,0.026c0.021,0,0.042,0,0.063,0
		c-0.003-0.013-0.013-0.026-0.013-0.026C797.532,687.254,797.507,687.258,797.481,687.263z"/>
	<path fill="#E81D26" d="M791.256,679.401c-0.461,0.048-0.521,0.364-0.599,0.63c0.407-0.03,0.812-0.062,1.215-0.096
		C791.781,679.691,791.776,679.354,791.256,679.401z"/>
	<path fill="#E81D26" d="M792.515,680.734c0.125,0.018,0.435-0.136,0.43-0.195c-0.026-0.43-0.576-0.451-1.016-0.561
		C791.968,680.291,791.855,680.665,792.515,680.734z"/>
	<path fill="#E81D26" d="M790.579,680.048c-0.244-0.1-0.478-0.225-0.751-0.273c-0.725-0.134-1.104-0.976-2.109-0.456
		c-0.392,0.204-0.192,0.556,0.164,0.726C788.729,680.443,789.584,681.294,790.579,680.048z"/>
	<path fill="#E81D26" d="M790.657,680.031c-0.021,0-0.044,0.004-0.065,0.004c0,0-0.009,0.004-0.013,0.013
		c0.021,0.004,0.042,0.013,0.065,0.021C790.645,680.069,790.652,680.044,790.657,680.031z"/>
	<path fill="#E81D26" d="M791.929,679.979v-0.035c-0.022-0.008-0.04-0.008-0.057-0.008l0.013,0.029
		C791.897,679.97,791.915,679.974,791.929,679.979z"/>
	<path fill="#E81D26" d="M805.506,666.205c-0.051,0.021-0.082,0.151-0.042,0.187c0.421,0.356,0.898,0.174,1.367,0.005
		C806.409,666.283,806.072,665.953,805.506,666.205z"/>
	<path fill="#E81D26" d="M806.848,666.392l-0.017,0.005c0.021,0.004,0.038,0.018,0.057,0.021L806.848,666.392z"/>
	<path fill="#E81D26" d="M792.654,696.278c0.108-0.229-0.27-0.334-0.592-0.352c-0.281-0.017-0.568-0.009-0.854-0.004
		c0.151,0.161,0.282,0.339,0.486,0.464C792.029,696.601,792.468,696.669,792.654,696.278z"/>
	<path fill="#E81D26" d="M791.13,695.923c0.025,0,0.053,0,0.078,0c-0.013-0.013-0.025-0.021-0.04-0.034L791.13,695.923z"/>
	<path fill="#E81D26" d="M768.479,676.957c-0.178,0.122-0.096,0.265,0.151,0.277c0.343,0.015,0.529-0.138,0.638-0.346
		C768.995,676.818,768.709,676.798,768.479,676.957z"/>
	<path fill="#E81D26" d="M770.394,676.259c-0.6-0.009-0.765,0.325-1.011,0.59c0.424-0.1,0.954-0.056,1.153-0.443
		C770.558,676.367,770.449,676.259,770.394,676.259z"/>
	<path fill="#E81D26" d="M769.269,676.889c0.022,0.009,0.044,0.009,0.065,0.013c0.013-0.017,0.03-0.035,0.049-0.053
		c-0.031,0.004-0.062,0.004-0.092,0.013C769.287,676.876,769.272,676.879,769.269,676.889z"/>
	<path fill="#E81D26" d="M806.853,647.504l-0.005-0.012c-0.034-0.01-0.065-0.01-0.095-0.014c0.017,0.014,0.029,0.031,0.048,0.048
		C806.818,647.518,806.835,647.51,806.853,647.504z"/>
	<path fill="#E81D26" d="M826.733,684.337c0.266,0.339,0.431,0.829,1.272,0.487c0.339-0.14,0.777-0.452,0.413-0.683
		C827.875,683.803,827.311,684.285,826.733,684.337z"/>
	<path fill="#E81D26" d="M826.596,684.18l0.094,0.166c0.015,0,0.031-0.009,0.044-0.009c0,0-0.008-0.018-0.017-0.021L826.596,684.18z
		"/>
	<path fill="#E81D26" d="M778.193,706.394c-0.281-0.07-0.616-0.053-0.929-0.074c-0.234-0.353-0.421-0.738-1.155-0.721
		c-0.042,0-0.121,0.108-0.121,0.108c-0.017,0.586,0.521,0.69,1.151,0.716c0.03,0.286,0.078,0.587,0.469,0.729
		c0.46,0.165,1.128,0.296,1.41-0.068C779.34,706.658,778.658,706.506,778.193,706.394z"/>
	<path fill="#E81D26" d="M776.801,657.497c0.018-0.025,0.03-0.048,0.047-0.073c0,0,0.006-0.035,0.009-0.053
		c-0.025,0.01-0.034,0.021-0.06,0.03C776.801,657.432,776.797,657.463,776.801,657.497z"/>
	<path fill="#E81D26" d="M777.833,656.398c0.018-0.199-0.047-0.542-0.194-0.568c-0.63-0.107-0.586,0.282-0.647,0.535
		c-0.082,0.329-0.095,0.668-0.135,1.006C777.49,657.186,777.804,656.842,777.833,656.398z"/>
	<path fill="#E81D26" d="M776.801,657.597c0.018-0.03,0.004-0.064,0.004-0.064c-0.057,0.039-0.107,0.117-0.16,0.194
		C776.697,657.684,776.783,657.649,776.801,657.597z"/>
	<path fill="#E81D26" d="M804.383,676.072c0.017,0,0.038-0.004,0.057-0.004l-0.004-0.044c-0.015,0.004-0.031,0.013-0.049,0.017
		L804.383,676.072z"/>
	<path fill="#E81D26" d="M801.639,676.215c-0.239,0.309,0.195,0.604,0.592,0.572c0.797-0.063,2.222,0.63,2.152-0.715
		c-0.295,0.034-0.586,0.087-0.876,0.096C802.877,676.193,802.238,675.438,801.639,676.215z"/>
	<path fill="#E81D26" d="M804.356,675.195c0.026,0.277,0.052,0.555,0.079,0.829c0.455-0.179,1.028-0.36,0.907-0.747
		C805.225,674.913,804.73,675.125,804.356,675.195z"/>
	<path fill="#E81D26" d="M803.592,673.919c-0.017,0-0.034,0.004-0.047,0.004c0,0,0.013,0.021,0.018,0.036
		c0.013-0.006,0.025-0.011,0.038-0.015L803.592,673.919z"/>
	<path fill="#E81D26" d="M802.551,674.779c0.256,0.55,1.032,0.458,1.732,0.39c-0.24-0.404-0.478-0.808-0.721-1.21
		C802.998,674.109,802.312,674.274,802.551,674.779z"/>
	<path fill="#E81D26" d="M804.283,675.169c0,0,0.013,0.026,0.021,0.039c0.018-0.005,0.036-0.009,0.053-0.013l-0.004-0.03
		C804.33,675.169,804.304,675.169,804.283,675.169z"/>
	<path fill="#E81D26" d="M806.579,672.036c-0.356-0.679-1.158,0.354-1.875,0.107c-0.529-0.187-1.177-0.239-1.784-0.309
		c-0.617-0.07-0.812,0.218-0.435,0.451c0.725,0.447,0.973,1.007,1.106,1.633c0.617-0.062,1.26-0.126,1.689-0.478
		C805.815,673.003,806.84,672.53,806.579,672.036z"/>
	<path fill="#E81D26" d="M830.159,679.119c-0.053,0.038,0.247,0.344,0.465,0.451c0.729,0.365,1.268,0.316,1.389-0.395
		c-0.183-0.004-0.369-0.021-0.547-0.004C831.001,679.219,830.628,678.742,830.159,679.119z"/>
	<path fill="#E81D26" d="M832.143,679.102c-0.039,0.018-0.083,0.03-0.121,0.048c0,0.014-0.009,0.014-0.009,0.014
		c0.017,0.013,0.038,0.013,0.056,0.013C832.108,679.163,832.116,679.123,832.143,679.102z"/>
	<path fill="#E81D26" d="M832.143,679.102c0.194-0.078,0.39-0.152,0.591-0.23C832.32,678.725,832.29,678.973,832.143,679.102z"/>
	<path fill="#E81D26" d="M768.943,673.094c0.13,0.13,0.435,0.065,0.43-0.078c0-0.19-0.117-0.382-0.226-0.56
		c-0.062-0.104-0.178-0.195-0.273-0.291c-0.052,0.13-0.143,0.257-0.13,0.378C768.762,672.733,768.8,672.946,768.943,673.094z"/>
	<path fill="#E81D26" d="M768.874,672.165l0.009-0.025l-0.018-0.027c-0.013,0-0.021,0.005-0.034,0.009
		C768.844,672.136,768.857,672.152,768.874,672.165z"/>
	<path fill="#E81D26" d="M768.51,671.027c-0.499,0.417,0.239,0.712,0.355,1.085c0.747-0.134,1.086-0.402,0.634-0.889
		C769.281,670.984,768.831,670.763,768.51,671.027z"/>
	<path fill="#E81D26" d="M827.794,681.182c-0.019,0-0.04-0.004-0.058-0.004c-0.008,0.008-0.017,0.013-0.017,0.013
		c0.017,0.013,0.034,0.013,0.056,0.017C827.781,681.199,827.789,681.19,827.794,681.182z"/>
	<path fill="#E81D26" d="M829.451,681.116c0.3-0.265-0.091-0.564-0.473-0.634c-0.852-0.165-0.96,0.33-1.185,0.699
		C828.357,681.178,828.979,681.527,829.451,681.116z"/>
	<path fill="#E81D26" d="M825.792,681.507c-0.199,0.194-0.091,0.46,0.26,0.495c0.886,0.087,1.286-0.36,1.663-0.808
		C827.012,681.06,826.308,681.004,825.792,681.507z"/>
	<path fill="#E81D26" d="M851.511,665.693c-0.155-0.179-0.503-0.369-0.55-0.282C850.713,665.854,851.216,665.685,851.511,665.693z"
		/>
	<path fill="#E81D26" d="M853.287,666.848c0.248-0.742-0.786-0.955-1.68-1.107c0.018,0.404,0.034,0.809,0.052,1.207
		C852.24,666.99,853.139,667.295,853.287,666.848z"/>
	<path fill="#E81D26" d="M851.555,667.117l0.104-0.148v-0.012c-0.009-0.01-0.025-0.01-0.034-0.014L851.555,667.117z"/>
	<path fill="#E81D26" d="M851.511,665.693c0.015,0.012,0.04,0.025,0.049,0.039c0.017,0.004,0.029,0.008,0.048,0.008l-0.006-0.047
		C851.581,665.688,851.542,665.693,851.511,665.693z"/>
	<path fill="#E81D26" d="M849.944,679.536c-0.179,0.183-0.356,0.365-0.533,0.547l0.026-0.031c0.294,0.062,0.58,0.145,0.88,0.179
		c0.409,0.053,0.89,0.078,1.081-0.242c0.091-0.161-0.009-0.439-0.178-0.57C850.796,679.094,850.331,679.149,849.944,679.536z"/>
	<path fill="#E81D26" d="M776.657,699.101c-0.716-0.552-1.163-0.426-1.368,0.299c-0.104,0.369-0.988,0.646-0.429,1.081
		c0.213,0.165,0.62,0.083,0.794-0.1c0.382-0.422,0.695-0.869,1.034-1.307L776.657,699.101z"/>
	<path fill="#E81D26" d="M829.521,674.162c-0.127,0.092,0.155,0.27,0.273,0.187c0.221-0.165,0.369-0.377,0.532-0.572
		C830.046,673.894,829.746,674.006,829.521,674.162z"/>
	<path fill="#E81D26" d="M832.481,674.531c0.386-0.144,0.521-0.509,0.324-0.761c-0.628-0.814-1.483-0.485-2.326-0.068
		c0.062,0.034,0.121,0.064,0.191,0.096C831.287,674.035,831.266,674.979,832.481,674.531z"/>
	<path fill="#E81D26" d="M830.479,673.702c-0.021-0.009-0.038-0.017-0.061-0.027c-0.026,0.036-0.06,0.065-0.092,0.102
		c0.053-0.022,0.096-0.049,0.145-0.07L830.479,673.702z"/>
	<path fill="#E81D26" d="M814.74,668.415c0.005-0.019,0.009-0.026,0.018-0.044c-0.021,0.009-0.04,0.018-0.057,0.021L814.74,668.415z
		"/>
	<path fill="#E81D26" d="M817.336,667.251c0.221-0.19,0.833-0.373,0.403-0.634c-0.229-0.139-0.798-0.125-1.171-0.052
		c-1.347,0.265-1.441,1.103-1.811,1.806C815.716,668.111,816.663,667.824,817.336,667.251z"/>
	<path fill="#E81D26" d="M813.556,689.664c-0.405-0.292-0.808-0.587-1.212-0.878c-1.497,0.791-0.552,1.181,0.451,1.521
		c0.214,0.068,0.65,0.004,0.86-0.11C813.954,690.037,813.776,689.823,813.556,689.664z"/>
	<path fill="#E81D26" d="M813.134,688.196c-0.409,0.064-0.585,0.3-0.746,0.533c0.337-0.091,0.702-0.159,0.989-0.308
		C813.537,688.339,813.373,688.157,813.134,688.196z"/>
	<path fill="#E81D26" d="M812.388,688.729c-0.027,0.009-0.058,0.019-0.087,0.027c0.013,0.013,0.029,0.021,0.043,0.029l0,0
		C812.357,688.765,812.375,688.752,812.388,688.729z"/>
	<path fill="#E81D26" d="M792.913,597.801c0.019,0.005,0.027,0.005,0.04,0.01c0,0,0.009-0.005,0.013-0.005l0.013-0.026
		C792.957,597.779,792.94,597.797,792.913,597.801z"/>
	<path fill="#E81D26" d="M791.694,597.975c-0.043,0.049-0.034,0.17-0.013,0.174c0.521,0.092,0.808-0.256,1.231-0.348
		C792.462,597.641,792.033,597.606,791.694,597.975z"/>
	<path fill="#E81D26" d="M823.816,667.178c0.1,0.013,0.53-0.326,0.494-0.447c-0.315-1.029-1.436-1.12-2.747-0.951
		C821.316,666.957,822.697,666.99,823.816,667.178z"/>
	<path fill="#E81D26" d="M821.485,665.367c0.026-0.014,0.019-0.021,0.044-0.035l0.008-0.039c-0.021,0.005-0.033,0.014-0.055,0.014
		L821.485,665.367z"/>
	<path fill="#E81D26" d="M821.512,665.723c-0.013-0.117-0.017-0.233-0.026-0.355C821.209,665.506,821.173,665.627,821.512,665.723z"
		/>
	<path fill="#E81D26" d="M821.563,665.779l-0.005-0.025c-0.034-0.009-0.021-0.021-0.047-0.031v0.062
		C821.529,665.784,821.546,665.784,821.563,665.779z"/>
	<path fill="#E81D26" d="M819.502,698.666c0.431,0.481,1.168,0.782,2.093,0.513c0.494-0.144,0.438-0.478,0.096-0.664
		c-0.465-0.252-0.834-0.534-1.064-0.902C819.854,697.78,818.765,697.846,819.502,698.666z"/>
	<path fill="#E81D26" d="M822.589,696.684c-0.903-0.427-1.289,0.068-1.668,0.536c-0.096,0.114-0.178,0.239-0.265,0.36
		c0.178,0.032,0.355,0.066,0.534,0.087c0.712,0.104,1.498,0.287,1.749-0.455C822.996,697.057,822.801,696.783,822.589,696.684z"/>
	<path fill="#E81D26" d="M820.626,697.612l0.013-0.005l0.013-0.019c-0.017-0.013-0.038-0.013-0.06-0.021
		C820.601,697.585,820.617,697.595,820.626,697.612z"/>
	<path fill="#E81D26" d="M819.328,693.097c0.422-0.034,0.859-0.178,0.99-0.469c0.255-0.564-0.568-0.63-0.994-0.858
		c-0.295-0.161-0.695-0.244-1.051-0.356c-0.073,0.261-0.2,0.529-0.188,0.785C818.117,692.719,818.347,693.175,819.328,693.097z"/>
	<path fill="#E81D26" d="M818.165,691.239l0.091,0.165l0.013,0.004c0.009-0.008,0.013-0.021,0.013-0.021L818.165,691.239z"/>
	<path fill="#E81D26" d="M828.73,685.853c0,0-0.008,0.021-0.013,0.034c0.018-0.005,0.03-0.009,0.052-0.014L828.73,685.853z"/>
	<path fill="#E81D26" d="M826.13,687.419c0.156,0.286,0.557,0.382,0.973,0.431c0.634,0.063,0.92-0.14,1.043-0.57
		c0.134-0.469,0.373-0.929,0.572-1.393c-0.799,0.169-1.554,0.404-2.192,0.781C826.195,686.868,825.975,687.129,826.13,687.419z"/>
	<path fill="#E81D26" d="M832.333,597.059c0.214-0.139,0.379-0.324,0.5-0.508c0.021-0.029-0.27-0.225-0.409-0.217
		c-1.275,0.074-2.729-0.477-3.741,0.591C829.842,597.303,830.957,597.958,832.333,597.059z"/>
	<path fill="#E81D26" d="M828.674,596.929h0.004c-0.013-0.009-0.029-0.018-0.047-0.022L828.674,596.929z"/>
	<path fill="#E81D26" d="M772.964,665.845c0.473,0.538,0.907,0.625,1.284-0.096c0.373-0.155,0.738-0.338,0.625-0.664
		c-0.16-0.474-0.773-0.776-1.346-0.507c-0.95,0.45-2.453,0.021-2.974,0.889c-0.321,0.535,0.026,1.186,0.799,1.433
		C773.015,667.425,772.204,666.053,772.964,665.845z"/>
	<path fill="#E81D26" d="M806.623,680.986c0.021,0.018,0.043,0.034,0.068,0.047c0.014-0.008,0.027-0.013,0.044-0.021l-0.004-0.013
		C806.697,680.995,806.661,680.991,806.623,680.986z"/>
	<path fill="#E81D26" d="M806.127,680.917c0.157,0.034,0.326,0.047,0.496,0.069c-0.17-0.122-0.297-0.287-0.634-0.205
		C806.032,680.83,806.062,680.904,806.127,680.917z"/>
	<path fill="#E81D26" d="M806.683,681.477c-0.456,0.065-1.032-0.034-1.198,0.422c-0.029,0.081,0.179,0.286,0.282,0.286
		C806.437,682.166,806.449,681.754,806.683,681.477z"/>
	<path fill="#E81D26" d="M806.757,681.455c-0.013-0.01-0.03-0.013-0.047-0.019c-0.01,0.009-0.019,0.027-0.027,0.04
		c0.027-0.004,0.053-0.004,0.074-0.009V681.455z"/>
	<path fill="#E81D26" d="M810.967,682.023c1.203-0.659,0.895-1.09-0.055-1.411c-1.412-0.478-2.904-0.603-4.177,0.399
		c0.005,0.147,0.013,0.295,0.021,0.443C808.055,681.88,808.957,683.126,810.967,682.023z"/>
	<path fill="#E81D26" d="M769.152,614.192v0.022c0.017-0.009,0.038-0.014,0.057-0.018c-0.005-0.01-0.013-0.018-0.013-0.018
		C769.178,614.18,769.165,614.188,769.152,614.192z"/>
	<path fill="#E81D26" d="M776.027,647.158c-1.544,0.711-2.504,1.527-0.541,2.391c1.236,0.539-1.286,1.463,0.303,1.697
		c0.876,0.131,1.303-0.859,2.288-1.046c1.211-0.226,1.198-0.27,0.056-1.468l-0.03,0.027c1.78-1.846,1.259-2.714-1.688-2.844
		c-0.513-0.021-1.09-0.109-1.281,0.338C774.912,646.771,775.571,646.928,776.027,647.158z"/>
	<path fill="#E81D26" d="M779.209,638.319c0.014,0.013,0.023,0.021,0.036,0.034c0.004-0.004,0.009-0.004,0.013-0.009
		C779.245,638.332,779.223,638.332,779.209,638.319z"/>
	<path fill="#E81D26" d="M816.681,672.352c-0.208,0.929,1.177,1.05,2.097,1.16c1.376,0.159,2.934,0.411,3.958-0.704
		c0.305-0.33,0.261-0.877-0.156-0.938c-0.934-0.147-1.279-1.168-2.574-0.678c-0.19,0.065-0.386,0.178-0.572,0.183
		C818.281,671.4,816.914,671.323,816.681,672.352z"/>
	<path fill="#E81D26" d="M771.999,603.557c1.52-0.186,2.835-1.432,2.578-2.404c-0.125-0.478-0.532-0.768-1.293-0.646
		c-1.307,0.209-3.403,1.688-3.346,2.349C770.021,603.857,771.162,603.553,771.999,603.557z"/>
	<path fill="#E81D26" d="M807.117,673.58c-0.235,0.243-0.082,0.563,0.33,0.712c0.139,0.048,0.469,0.021,0.568-0.057
		c1.16-0.915,1.989-2.07,3.903-2.452c0.116-0.026,0.112-0.383,0.112-0.383c-0.025-1.02-0.994-1.38-1.832-0.764
		C809.002,671.515,808.086,672.572,807.117,673.58z"/>
	<path fill="#E81D26" d="M783.958,599.494c1.438-0.091,2.743-0.938,2.758-1.788c0.017-0.46-0.118-0.864-0.922-0.907
		c-0.92-0.057-2.604,1.402-2.616,2.249C783.174,599.395,783.464,599.525,783.958,599.494z"/>
	<path fill="#E81D26" d="M819.467,675.195c-0.785,0.042-1.801,0.407-1.649,0.833c0.265,0.729,0.911,1.793,1.706,1.897
		c0.882,0.116,1.302-0.965,1.48-1.628C820.912,675.608,820.539,675.138,819.467,675.195z"/>
	<path fill="#E81D26" d="M823.635,674.979c-0.374,0.004-0.481,0.225-0.526,0.433c-0.047,0.288-0.068,0.574-0.095,0.8
		c-0.208,0.674,0.355,0.911,1.02,1.181c0.86,0.348,1.854,0.608,2.24,1.346c0.179,0.339,0.699,0.6,1.211,0.257
		c0.435-0.292,0.205-0.726-0.17-0.952c-1.34-0.812-3.22-1.318-3.25-2.839C824.064,675.116,823.791,674.975,823.635,674.979z"/>
	<path fill="#E81D26" d="M803.051,684.003c-0.509,0.021-1.639,0.639-1.655,0.897c-0.034,0.475,1.798,1.673,2.493,1.62
		c0.46-0.039,0.768-0.213,0.828-0.547C804.843,685.292,803.731,683.968,803.051,684.003z"/>
	<g>
		<path fill="#E81D26" d="M838.445,600.61l41.213-0.782l-32.509,30.591c0.242,0.009,0.507-0.005,0.693,0.065
			c0.17,0.061,0.049,0.234-0.203,0.243c-0.295,0.009-0.426-0.126-0.513-0.292l-4.788,4.511l0.248,0.712
			c0.047,0.025,0.056,0.069,0.108,0.096c-0.004,0.039-0.038,0.043-0.049,0.078l2.64,7.631c-0.138-0.009-0.299-0.018-0.594-0.052
			c0.335,0.525,0.655,1.042,0.981,1.563c0.043-0.005,0.086-0.01,0.13-0.018l4.541,13.117c-1.521-0.43-3.053-0.686-4.164-0.586
			c0.025,0.934,0.034,1.646,0.049,2.297c0.051-0.018,0.087-0.043,0.155-0.047c0.543-0.053,0.491,0.324,0.475,0.611
			c-0.288,0.32,0.29,0.951-0.588,1.023c0.049,1.033,0.153,2.172,0.427,4.047c2.995,1.264,2.222,2.877,6.983,2.3l1.155,3.343
			c-0.804,0.885-1.128,1.614-0.746,4.067c0.989,0.381,1.831,0.92,2.665,1.473l0.013,0.042c0.152,0.117,0.256,0.266,0.299,0.435
			c-0.03,0.039-0.064,0.087-0.104,0.134l1.425,4.107c-0.131,0.021-0.257,0.039-0.386,0.061c0.06,0.369,0.116,0.742,0.178,1.115
			c-0.087,0.121-0.131,0.191-0.183,0.27l-15.613-8.561c0.017,0.053,0.051,0.087,0.063,0.14c-0.013,0.286-0.069,0.63-0.581,0.616
			c-0.604-0.014-0.674-0.421-0.737-0.756c-0.036-0.199,0.112-0.412,0.42-0.46l-17.662-9.685c-0.365,0.568-1.134,1.003-2.35,1.232
			c0.014-0.346,0.127-0.682,0.495-0.95c1.038-0.772,0.656-0.972-0.651-0.825c-0.391,0.044-1.007,0.301-1.124,0.035
			c-0.187-0.416,0.543-0.547,0.986-0.678c0.108-0.033,0.229-0.047,0.343-0.078l-1.312-0.715c-0.659,0.403-1.272,0.107-1.879-0.044
			c-0.674-0.165-1.42-0.27-1.823-0.712c-0.248-0.27-0.201-0.535,0.386-0.63c0.382,0.057,0.76,0.13,1.137,0.19l-1.905-1.045
			c-0.104,0.096-0.273,0.17-0.474,0.221c-0.324,0.014-0.585-0.073-0.646-0.287c-0.051-0.182,0.044-0.324,0.204-0.434l-1.107-0.611
			l-3.867,2.921c0.005,0.229-0.178,0.312-0.434,0.329l-19.999,15.116c0.513,0.138,0.912,0.36,0.921,0.782
			c-0.087,0.255-0.331,0.424-0.647,0.398c-0.551-0.049-0.842-0.305-1.023-0.612l-0.469,0.355c-0.015-0.008-0.015-0.008-0.027-0.021
			c0,0-0.009,0.034-0.013,0.051l-15.319,11.582l1.038-5.487c-0.057,0.044-0.113,0.104-0.169,0.104
			c-0.278,0.008-0.36-0.092-0.195-0.242c0.043-0.044,0.199-0.062,0.27-0.04c0.056,0.013,0.078,0.074,0.108,0.127l1.636-8.644
			c-0.116-0.053-0.216-0.122-0.247-0.265c0,0,0.165-0.083,0.321-0.112l0.847-4.48c-0.078,0.026-0.121,0.074-0.226,0.077
			c-0.985,0.053-2.588-1.162-2.436-1.831c0.052-0.226,0.386-0.46,0.594-0.355c0.765,0.373,1.745,0.607,2.254,1.146l0.247-1.315
			c-0.078-0.082-0.152-0.169-0.156-0.291c-0.009-0.155,0.112-0.251,0.27-0.312l1.414-7.444c-0.183-0.104-0.312-0.255-0.429-0.417
			c-0.087-0.117-0.118-0.256-0.174-0.381c-0.183-0.035-0.616,0.091-0.335-0.244c0.113,0.083,0.227,0.161,0.34,0.239
			c0.19,0.034,0.395,0.052,0.568,0.108c0.048,0.018,0.1,0.03,0.152,0.043l0.337-1.787c-0.199-0.014-0.355-0.079-0.246-0.292
			c0.038-0.077,0.195-0.151,0.343-0.194l0.251-1.329c-0.034-0.053-0.087-0.091-0.112-0.144c-0.074-0.156,0.029-0.295,0.212-0.391
			l1.594-8.387c0.304-0.047,0.608-0.096,0.912-0.147c0.069-0.772,0.143-1.546,0.216-2.322c-0.784-0.269-1.731-0.278-1.978,0
			c-1.456,1.649-1.785-0.061-1.872-0.278c-0.417-1.055-0.659-2.053-2.088-2.834c-0.929-0.508-1.033-1.502,0.716-2.066
			c0.742-0.238,1.323-0.716,1.98-1.09c0.337,0.33,0.698,0.651,0.998,0.999c0.295,0.343,0.269,0.803-0.413,0.825
			c-2.821,0.091-1.007,0.863-0.477,1.262c0.85,0.639,1.753,1.238,2.734,1.789l0.746-3.941l-0.547-0.382
			c-1.085,0.112-2.131,0.096-3.029-0.561l0.009-0.004c-0.335-0.581-1.372-1.241,0.286-1.346l-2.761-1.927
			c-0.021,0.03-0.044,0.061-0.065,0.086c-0.265,0.326-0.551,0.643-0.174,0.99c0.33,0.304,0.596,0.66-0.199,0.816
			c-0.586,0.113-0.929-0.243-1.186-0.547c-0.469-0.561-0.065-1.111,0.266-1.642c0.091-0.147,0.261-0.261,0.46-0.329l-17.441-12.173
			c0.261-0.104,0.503-0.204,0.833-0.325c-0.03-0.183-0.057-0.365-0.087-0.556c-0.543,0.083-1.09,0.169-1.637,0.256l-16.748-11.686
			l34.081-4.341c0.005-0.16,0.009-0.321,0.018-0.481l0.118-0.074l-0.083,0.091c-0.006,0.152-0.008,0.305-0.014,0.456l2.476-0.312
			c0.072-0.19,0.146-0.399,0.237-0.703c0.174-0.603,0.439-1.198,1.508-1.188c0.928,0.008,1.458,0.451,1.579,1.085
			c0.025,0.12,0.034,0.251,0.052,0.377l4.515-0.577c-0.886-0.174-0.386-0.903-0.768-1.303c-0.165-0.169-0.214-0.391-0.313-0.59
			c-0.638-0.018-1.501,0.512-1.861-0.121c-0.227-0.391,0.27-0.842,0.92-0.946c1.024-0.169,1.086,0.399,1.215,0.867
			c1.889-0.178,1.599,0.695,1.516,1.485c-0.021,0.217-0.1,0.447-0.317,0.555l4.74-0.599c-0.273-0.078-0.469-0.187-0.378-0.329
			c0.304-0.486,1.139-0.408,1.819-0.565l0.985-3.242c-0.035-0.005-0.057,0.018-0.095,0.005c-0.465-0.122-0.378-0.447-0.27-0.721
			c0.134-0.33,0.312-0.656,0.473-0.981c0.14-0.026,0.291-0.069,0.443-0.112l0.377-1.242c0.117-0.009,0.152,0,0.295-0.018
			c-0.029-0.212-0.063-0.42-0.1-0.633l6.924-22.769c0.634-0.1,1.268-0.2,1.897-0.3c0.087-0.959,0.187-1.936,0.273-2.899
			c-0.422,0.065-0.843,0.13-1.255,0.2l4.731-15.576l11.794,24.991c-0.187,0.025-0.368,0.056-0.56,0.087
			c0.121,0.699-1.164,1.285,0.266,1.675c0.133,0.335,0.455-0.233,0.733-0.837l9.636,20.428l4.954-0.096
			c0.078,0.109,0.156,0.217,0.261,0.369c0.233-0.035,0.481-0.074,0.71-0.107c-0.013-0.097-0.025-0.188-0.042-0.279l2.084-0.039
			c0.078-0.455,0.386-0.902,0.803-1.336c0.229-0.248,0.547-0.465,1.024-0.378c0.469,0.077,0.547,0.364,0.643,0.765
			C838.862,600.015,838.676,600.314,838.445,600.61z"/>
		<path fill="#E81D26" d="M749.839,613.138c-0.086-0.563-0.177-1.12-0.265-1.685c-0.482,0.078-0.95,0.147-1.432,0.227
			C748.918,613.395,747.916,612.69,749.839,613.138z"/>
		<path fill="#E81D26" d="M852.401,669.1c0.86,0.396,0.144,0.183,1.52,0.335C853.052,669.04,853.781,669.257,852.401,669.1z"/>
		<path fill="#E81D26" d="M829.507,649.24c-0.085-0.555-0.177-1.119-0.265-1.68c-0.72,0.117-1.432,0.23-2.152,0.344
			c0.087,0.555,0.178,1.119,0.265,1.676C828.075,649.467,828.786,649.354,829.507,649.24z"/>
		<path fill="#E81D26" d="M808.732,648.169c-0.065,0.064-0.096,0.139-0.214,0.183c-0.768,0.256-1.115-0.113-1.41-0.496
			c-0.091-0.112-0.169-0.233-0.256-0.352c0.165-0.068,0.326-0.143,0.495-0.199c0.586-0.195,1.055-0.13,1.357,0.199l-0.008-0.143
			c-0.76-0.5-0.27-0.043-0.889-1.003c-0.744-0.069-1.482-0.147-2.232-0.216c-0.062,0.107-0.152,0.229-0.217,0.342
			c0.643,0.191,1.007,0.604,1.394,0.994c-0.694-0.074-1.376-0.151-1.702-0.508c-0.347,0.547-0.729,1.059-1.162,1.566
			c0.237,0.03,0.398,0.14,0.411,0.334c-0.087,0.234-0.304,0.387-0.655,0.326c-0.078-0.013-0.165-0.057-0.239-0.104
			c-0.087,0.091-0.159,0.203-0.246,0.285c0.606,0.978,0.129,0.505,0.889,1.012c1.077,0.43,2.444,0.183,4.376-0.121
			C808.642,649.514,808.75,649.045,808.732,648.169z"/>
		<path fill="#E81D26" d="M805.65,651.281c-0.227,0.035-0.473,0.074-0.708,0.107c0.062,0.375,0.116,0.748,0.178,1.125
			c0.23-0.039,0.478-0.078,0.704-0.107C805.767,652.027,805.707,651.65,805.65,651.281z"/>
		<path fill="#E81D26" d="M809.813,593.955c-0.148-0.928-0.296-1.861-0.438-2.791c-0.244,0.039-0.481,0.078-0.725,0.113
			c-0.791,1.207-0.903,0.621-1.068,2.461c0.477-0.078,0.951-0.152,1.42-0.226c0.029,0.187,0.06,0.378,0.091,0.556
			C809.331,594.029,809.57,593.994,809.813,593.955z"/>
		<path fill="#E81D26" d="M807.204,637.872c-0.091-0.563-0.178-1.115-0.265-1.685c-0.717,0.113-1.428,0.227-2.14,0.34
			c0.087,0.563,0.178,1.119,0.265,1.68C805.775,638.098,806.487,637.985,807.204,637.872z"/>
		<path fill="#E81D26" d="M799.916,661.321c-0.062-0.368-0.117-0.733-0.174-1.099c0,0-1.402,0.113-1.771-0.017
			c0.134,0.273,0.216,0.616,0.43,0.794c0.425,0.2,0.46,0.248,0.56,0.261C799.239,661.104,799.572,661.148,799.916,661.321z"/>
		<path fill="#E81D26" d="M800.384,650.391c-0.091-0.56-0.178-1.115-0.265-1.675c-0.711,0.108-1.423,0.222-2.135,0.334
			c0.087,0.561,0.174,1.116,0.265,1.681C798.961,650.617,799.672,650.504,800.384,650.391z"/>
		<path fill="#E81D26" d="M799.924,634.525c0.053-0.039,0.078-0.061,0.14-0.113c0.238-0.039,0.474-0.073,0.721-0.112
			c-0.087-0.556-0.178-1.12-0.265-1.672c-1.503,0.425-1.346,0.287-2.054,0.891c-0.242,0.039-0.481,0.077-0.721,0.112
			c0.087,0.564,0.178,1.12,0.265,1.68c0.674-0.19,0.994-0.269,1.229-0.352c0.112-0.203,0.303-0.382,0.677-0.434
			C799.916,634.525,799.92,634.525,799.924,634.525z"/>
		<path fill="#E81D26" d="M794.294,621.012c0.773,1.711-0.229,1.008,1.693,1.454c-0.03-0.187-0.062-0.373-0.091-0.56
			C795.18,621.59,795.015,621.325,794.294,621.012z"/>
		<path fill="#E81D26" d="M789.567,618.894c0.233-0.034,0.473-0.073,0.712-0.112c-0.86-0.391-0.14-0.178-1.52-0.33
			c0.062,0.373,0.117,0.746,0.178,1.111c0.239-0.035,0.478-0.074,0.717-0.113C789.627,619.267,789.598,619.084,789.567,618.894z"/>
		<path fill="#E81D26" d="M797.064,657.211c0.29,1.211,0.511,2.122,0.833,2.865c0.053-0.048,0.147-0.109,0.326-0.183
			c0.233-0.034,0.481-0.074,0.711-0.113c1.246-1.546,1.75-1.11,1.619-3.688c-0.478,0.072-0.954,0.151-1.429,0.221
			c-0.091,0.078-0.134,0.113-0.203,0.164c0.321,0.07,0.659,0.2,0.82,0.374c0.182,0.204-0.155,0.364-0.49,0.368
			c-0.422,0.014-0.765-0.095-0.898-0.338l0.008-0.047C798.122,656.92,797.793,656.994,797.064,657.211z"/>
		<path fill="#E81D26" d="M808.906,611.471c-0.013-0.064-0.022-0.13-0.035-0.199c-0.499-0.104-1.008-0.218-1.515-0.33
			c0.021,0.147,0.043,0.291,0.064,0.434c0.097-0.064,0.214-0.112,0.368-0.104C808.189,611.297,808.598,611.341,808.906,611.471z"/>
		<path fill="#E81D26" d="M807.518,611.97c0.003,0.03,0.009,0.062,0.009,0.062c0.025,0.025,0.042,0.021,0.06,0.021
			C807.561,612.026,807.539,612,807.518,611.97z"/>
		<path fill="#E81D26" d="M807.121,595.522c-0.029-0.187-0.057-0.369-0.086-0.556c-0.234,0.039-0.478,0.078-0.713,0.112
			c0.118,0.743,0.235,1.489,0.352,2.231c0.335-0.112,0.579-0.178,0.787-0.23c-0.092-0.104-0.14-0.221-0.066-0.373
			c0.191-0.416,0.604-0.386,1.024-0.29c0.049-0.144,0.114-0.313,0.223-0.56C808.133,595.748,807.626,595.635,807.121,595.522z"/>
		<path fill="#E81D26" d="M802.768,617.713c-0.561-0.018-1.12-0.039-1.68-0.064c0.199,0.277,0.312,0.599,0.416,0.894
			C801.805,618.203,802.182,617.869,802.768,617.713z"/>
		<path fill="#E81D26" d="M793.604,616.602c0.178-0.104,0.347-0.221,0.534-0.321c0.134-0.064,0.269-0.126,0.407-0.183
			c-0.13-0.056-0.151-0.012-1.042-0.113C793.539,616.193,793.57,616.398,793.604,616.602z"/>
		<path fill="#E81D26" d="M785.582,644.705c0.473-0.074,0.945-0.148,1.424-0.227c0.478-0.989,0.729-1.102,0.989-2.135
			c-0.159-0.035-0.255-0.166-0.386-0.244c-0.316,0.049-0.639,0.101-0.955,0.148C785.859,643.454,785.747,642.869,785.582,644.705z"
			/>
		<path fill="#E81D26" d="M811.272,599.611c-0.079,0.018-0.127,0.053-0.214,0.065c-0.386,0.061-0.755,0.022-1.068-0.065
			c-0.003,0.021-0.018,0.018-0.018,0.018c-1.268,0.721,1.521,0.36,1.521,0.36C811.376,599.803,811.323,599.707,811.272,599.611z"/>
		<path fill="#E81D26" d="M810.005,585.912c-0.058-0.374-0.118-0.747-0.174-1.116c-0.235,0.039-0.474,0.074-0.717,0.113
			c-1.064-1.276,0.282-0.5-1.606-0.895c0.36,0.708,0.716,1.415,1.072,2.122C809.053,586.063,809.531,585.99,810.005,585.912z"/>
		<path fill="#E81D26" d="M807.698,580.555c-0.863-0.398-0.146-0.182-1.519-0.338c0.056,0.373,0.117,0.742,0.174,1.119
			c0.242-0.039,0.473-0.077,0.711-0.112c-0.025-0.187-0.056-0.374-0.085-0.556C807.221,580.629,807.461,580.59,807.698,580.555z"/>
		<path fill="#E81D26" d="M781.628,608.128c0,0.491-0.174,0.964-0.343,1.441c0.187,0.021,0.485,0.061,0.98,0.174
			c-0.057-0.373-0.116-0.746-0.178-1.12c0.244-0.039,0.481-0.078,0.712-0.112c-0.026-0.174-0.057-0.374-0.087-0.552
			C782.353,608.016,781.988,608.072,781.628,608.128z"/>
		<path fill="#E81D26" d="M778.944,616.562c-0.416-1.08-0.824-2.162-1.24-3.242c-0.713,0.113-1.434,0.226-2.146,0.339
			c0.062,0.373,0.118,0.746,0.174,1.119c-0.52,0.721-0.377,0.564-0.451,1.788c0.479-0.077,0.951-0.151,1.429-0.226
			C777.581,616.705,777.398,616.598,778.944,616.562z"/>
		<path fill="#E81D26" d="M780.69,628.396c0.068-0.034,0.104-0.086,0.134-0.151C780.782,628.296,780.733,628.344,780.69,628.396z"/>
		<path fill="#E81D26" d="M780.69,636.896c-0.035,0.044-0.062,0.056-0.088,0.091c0.192,0.009,0.392,0.014,0.582,0.018
			C781.02,636.969,780.854,636.935,780.69,636.896z"/>
		<polygon fill="#E81D26" points="787.032,672.547 787.036,672.538 787.032,672.53 		"/>
		<path fill="#E81D26" d="M802.763,662.043c0.074,0,0.136,0.047,0.205,0.069c-0.009-0.035-0.009-0.065-0.019-0.101
			C802.89,662.021,802.824,662.033,802.763,662.043z"/>
		<path fill="#E81D26" d="M817.535,612.859c-0.117-0.008-0.183-0.012-0.356-0.029c0.053,0.125,0.083,0.212,0.123,0.308
			C817.361,613.042,817.457,612.955,817.535,612.859z"/>
		<path fill="#E81D26" d="M818.721,614.248c0.053,0.014,0.086,0.019,0.147,0.031c-0.004-0.035-0.013-0.069-0.013-0.069
			C818.807,614.197,818.76,614.228,818.721,614.248z"/>
		<path fill="#E81D26" d="M818.964,610.26c-0.473,0.074-0.951,0.151-1.425,0.226C818.773,610.998,818.6,611.38,818.964,610.26z"/>
		<path fill="#E81D26" d="M816.768,596.299c0.056,0.369,0.116,0.743,0.174,1.117c0.237-0.04,0.477-0.074,0.721-0.113
			c-0.062-0.374-0.123-0.747-0.178-1.121C817.244,596.222,817.005,596.26,816.768,596.299z"/>
		<path fill="#E81D26" d="M818.265,642.998c-0.768-1.714,0.227-1.007-1.696-1.453c-0.148,0.595-0.292,1.186-0.443,1.779
			c0,0,0.013,0.004,0.018,0.009C816.85,643.221,817.562,643.107,818.265,642.998z"/>
		<path fill="#E81D26" d="M838.433,645.538c0.061,0.373,0.122,0.746,0.178,1.12c0.478-0.074,0.96-0.151,1.433-0.226
			c-0.027-0.152-0.048-0.304-0.074-0.456c-0.138-0.091-0.212-0.226-0.156-0.404c0.013-0.034,0.062-0.051,0.078-0.086
			c-0.009-0.061-0.017-0.113-0.025-0.174C839.396,645.391,838.914,645.464,838.433,645.538z"/>
		<path fill="#E81D26" d="M832.82,605.221c0.398,1.275,0.524,1.328,1.062,2.113c0.248-0.039,0.482-0.074,0.721-0.113
			c-0.03-0.187-0.056-0.369-0.087-0.556c0.23-0.034,0.478-0.073,0.712-0.112c-0.029-0.187-0.061-0.373-0.087-0.56
			C834.37,605.732,833.592,605.472,832.82,605.221z"/>
		<path fill="#E81D26" d="M823.539,602.094c-0.53-0.047-1.064-0.104-1.602-0.155c-0.044,0.017-0.088,0.034-0.122,0.052
			c-0.199,0-0.356-0.039-0.456-0.104c-0.017,0-0.034-0.004-0.051-0.004c-0.145,0.585-0.305,1.185-0.447,1.783
			c1.905,0.373,0.523-0.365,1.605,0.89c0.568-0.716,0.234-0.13,0.538-1.229C823.564,602.615,823.244,603.197,823.539,602.094z"/>
		<path fill="#E81D26" d="M820.184,590.035c0.113,0.738,0.23,1.484,0.347,2.232c0.713-0.113,1.429-0.227,2.146-0.34
			c-0.087-0.555-0.174-1.119-0.261-1.67c-0.482,0.072-0.964,0.15-1.433,0.225c-0.03-0.186-0.062-0.373-0.087-0.56
			C820.651,589.961,820.414,590.001,820.184,590.035z"/>
		<path fill="#E81D26" d="M816.163,587.8c1.226,0.005,2.437,0.005,3.664,0c-0.087-0.56-0.174-1.116-0.265-1.68
			c-2.174,0.286-2.058-0.14-2.86,0.451C816.138,587.288,816.458,586.701,816.163,587.8z"/>
		<path fill="#E81D26" d="M809.413,572.842c-0.473,0.073-0.95,0.151-1.432,0.225c-0.278,0.969-0.379,1.429-0.273,2.904
			c0.242-0.039,0.478-0.078,0.711-0.113c0.031,0.188,0.062,0.369,0.091,0.561c1.285-0.564,0.643-0.143,1.342-0.785
			c0.235-0.039,0.478-0.079,0.713-0.113C810.013,574.687,809.757,574.277,809.413,572.842z"/>
		<path fill="#E81D26" d="M806.036,565.361c0.062,0.373,0.117,0.743,0.178,1.121c0.713-0.113,1.425-0.227,2.146-0.34
			c-0.062-0.373-0.118-0.746-0.178-1.119C807.461,565.137,806.748,565.249,806.036,565.361z"/>
		<path fill="#E81D26" d="M802.061,586.589c0.607,0.973,0.125,0.495,0.885,1.007c0.873,0.365,0.683,0.256,2.236,0.222
			c-0.391-1.28-0.534-1.333-1.068-2.122c-1.28,0.56-0.643,0.146-1.342,0.785C802.533,586.516,802.29,586.555,802.061,586.589z"/>
		<path fill="#E81D26" d="M799.1,591.064c0.087,0.555,0.174,1.115,0.265,1.68c0.712-0.113,1.433-0.226,2.137-0.338
			c0.511-0.8,0.456-0.721,1.262-1.347c-0.029-0.183-0.06-0.373-0.087-0.56C801.482,590.687,800.293,590.877,799.1,591.064z"/>
		<path fill="#E81D26" d="M790.313,605.038c0.14,0.308,0.208,0.521,0.261,0.694c0.025,0.008,0.07,0.008,0.083,0.025
			c0.043,0.074,0.025,0.131-0.027,0.174c0.136,0.539-0.056,0.23,1.382,0.564c-0.062-0.378-0.118-0.746-0.178-1.12
			C791.325,605.26,790.812,605.154,790.313,605.038z"/>
		<path fill="#E81D26" d="M787.266,608.957c2.349,0.021,1.168-0.49,2.318,0.777c-1.367,0.847-1.358,0.59-1.88,2.01
			c0.952-0.147,1.91-0.299,2.866-0.447c0.808-1.627-0.018-0.29,2.144-0.338c-0.721-1.086-0.134-1.037-0.976-1.562
			c-0.019-0.101-0.035-0.2-0.049-0.305c-0.057,0.018-0.065,0.061-0.125,0.074c-0.482,0.082-0.816-0.334-0.926-0.742
			c-0.407,0.064-0.814,0.13-1.232,0.195c-0.755-1.706,0.239-1.012-1.685-1.45C787.566,607.76,787.414,608.354,787.266,608.957z"/>
		<path fill="#E81D26" d="M775.76,605.615c0.568,0.26,0.485,0.256,0.724,0.269c0.205,0.005,0.399-0.004,0.521-0.064
			C776.636,605.637,776.909,605.745,775.76,605.615z"/>
		<path fill="#E81D26" d="M769.673,608.865c0.399,1.277,0.53,1.334,1.067,2.115c1.284-0.556,0.646-0.139,1.346-0.781
			c0.568-0.713,0.244-0.126,0.53-1.229c-0.227,0.035-0.474,0.073-0.704,0.112c-0.029-0.183-0.06-0.373-0.087-0.556
			c-0.316,0.135-1.253,1.315-1.258,1.346c-0.057-0.377-0.118-0.746-0.174-1.124C770.154,608.788,769.92,608.823,769.673,608.865z"/>
		<path fill="#E81D26" d="M770.462,613.897c-0.146,0.021-0.295,0.048-0.445,0.069c0.138-0.018,0.277-0.018,0.411,0.014
			C770.437,613.953,770.454,613.924,770.462,613.897z"/>
		<path fill="#E81D26" d="M769.664,613.441c-0.169,0.027-0.339,0.053-0.504,0.078c0.053,0.182,0.057,0.399-0.008,0.673
			c-0.621,0.239-1.182,1.003-1.803,0.643c-0.138-0.082-0.286-0.117-0.429-0.187c0.048,0.309,0.096,0.617,0.143,0.93
			c0.96-0.152,1.915-0.305,2.866-0.452c0.051-0.117,0.1-0.229,0.15-0.348c-0.442-0.017-0.634-0.329-0.871-0.581
			c0.261-0.087,0.523-0.188,0.785-0.227c-0.083,0.014-0.16,0.026-0.238,0.035C769.725,613.814,769.694,613.633,769.664,613.441z"/>
		<path fill="#E81D26" d="M782.644,677.227c-0.057-0.374-0.117-0.747-0.174-1.12c-0.481,0.074-0.956,0.148-1.433,0.226
			c0.277,1.547,0.147,0.33-0.369,2.353c0.481-0.077,0.96-0.15,1.433-0.225C782.387,677.34,782.075,677.938,782.644,677.227z"/>
		<path fill="#E81D26" d="M784.255,673.537c-0.856-0.395-0.145-0.183-1.521-0.33C783.598,673.603,782.887,673.389,784.255,673.537z"
			/>
		<path fill="#E81D26" d="M788.639,673.425c-0.031-0.191-0.062-0.374-0.091-0.565c-0.053-0.009-0.105-0.021-0.161-0.034
			c-0.239,0.239-0.543,0.435-1.02,0.5c-0.104-0.015-0.152-0.058-0.227-0.087c0.021,0.134,0.044,0.273,0.065,0.411
			C787.679,673.571,788.156,673.497,788.639,673.425z"/>
		<path fill="#E81D26" d="M803.128,663.123l-0.005-0.018c-0.008,0-0.008,0.014-0.013,0.026
			C803.119,663.127,803.119,663.127,803.128,663.123z"/>
		<path fill="#E81D26" d="M821.355,657.966c-1.193,0.187-2.388,0.378-3.568,0.564c0.087,0.556,0.174,1.116,0.261,1.672
			c1.385,0.138,0.651-0.058,1.51,0.334c1.286-0.561,0.639-0.144,1.347-0.786C821.43,659.034,821.277,659.195,821.355,657.966z"/>
		<path fill="#E81D26" d="M829.291,661.869c0.951-0.152,1.91-0.305,2.864-0.452c0.725-1.528,0.234-1.358,2.588-2.126
			c-0.205-1.303-0.409-2.605-0.612-3.916c-1.889-0.382-2.239-0.27-3.208-1.78c-0.239,0.035-0.481,0.073-0.712,0.112
			c-0.221,3.238-2.262,3.083-1.811,7.154C829.161,661.365,828.674,660.904,829.291,661.869z"/>
		<path fill="#E81D26" d="M838.924,667.217c-0.053-0.23-0.102-0.395-0.148-0.573c-0.009,0-0.017,0.009-0.025,0.009
			c-0.127,0-0.239-0.131-0.36-0.2c0.1-0.061,0.199-0.126,0.295-0.165c-0.235-0.751-0.5-1.129-0.916-1.75
			c-0.235,0.035-0.478,0.074-0.712,0.113c0.031,0.179,0.061,0.374,0.087,0.557c-0.548,0.764-0.435,1.02-0.365,2.344
			C837.495,667.438,838.207,667.33,838.924,667.217z"/>
		<path fill="#E81D26" d="M853.334,614.574c-0.117-0.742-0.233-1.488-0.351-2.23c-0.234,0.035-0.473,0.073-0.708,0.107
			c-0.981,1.034-1.297,0.582-1.884,2.015c0.239-0.034,0.479-0.073,0.716-0.112C851.98,614.714,851.784,614.613,853.334,614.574z"/>
		<path fill="#E81D26" d="M862.025,604.625c0.238-0.039,0.473-0.074,0.715-0.117c0.031,0.183,0.062,0.373,0.089,0.561
			c2.04-0.378,0.925-0.734,2.135-0.339c0.53-0.721,0.382-0.56,0.46-1.784c-1.358-0.338-1.284-0.543-3.033-0.668
			C862.125,603.188,862.03,603.283,862.025,604.625z"/>
		<path fill="#E81D26" d="M858.248,613.229c0.808,1.402,0.981,1.385,2.501,1.902c0.03,0.178,0.061,0.368,0.087,0.551
			c0.234-0.035,0.474-0.07,0.717-0.108c-0.031-0.187-0.062-0.378-0.087-0.556c0.238-0.039,0.478-0.074,0.711-0.113
			c0.144-1.142-1.162-0.234-0.179-1.115c-0.854-0.403-0.134-0.188-1.514-0.344C859.607,613.094,859.807,613.189,858.248,613.229z"/>
		<path fill="#E81D26" d="M852.119,602.182c0.057,0.364,0.118,0.737,0.174,1.111c0.712-0.109,1.433-0.226,2.145-0.339
			c-0.031-0.187-0.061-0.373-0.086-0.56C853.607,602.32,852.861,602.251,852.119,602.182z"/>
		<path fill="#E81D26" d="M850.141,608.211c1.393,0.139,0.65-0.064,1.519,0.33c1.276-0.557,0.638-0.135,1.337-0.777
			c0.577-0.721,0.242-0.13,0.539-1.232c-0.773-0.261-1.55-0.521-2.314-0.786C850.423,606.951,850.312,606.371,850.141,608.211z"/>
	</g>
	<path fill="#E81D26" d="M797.641,672.025c-0.138,0.049-0.265,0.231-0.261,0.348c0.011,0.27,2.522,1.628,2.839,1.559
		c0.466-0.1,0.721-0.308,0.657-0.643C800.744,672.659,798.439,671.748,797.641,672.025z"/>
	<path fill="#E81D26" d="M820.644,694.808c0-0.312-0.443-0.513-0.891-0.374c-1.046,0.326-1.519,0.978-1.735,1.684
		c-0.065,0.201,0.329,0.297,0.776,0.244C819.445,695.91,820.651,695.666,820.644,694.808z"/>
	<path fill="#E81D26" d="M820.683,681.281c-1.25-0.343-1.115-1.125-1.011-1.914c0.013-0.074-0.257-0.195-0.426-0.227
		c-0.352-0.064-0.6,0.1-0.778,0.282c-0.45,0.47-0.477,0.947-0.116,1.407c0.404,0.521,1.055,0.833,1.954,0.871
		C820.656,681.719,820.912,681.628,820.683,681.281z"/>
	<path fill="#E81D26" d="M823.847,682.488c-0.646,0.355-0.677,0.85-0.789,1.302c-0.096,0.399,0.269,0.655,0.895,0.582
		c0.469-0.057,0.706-0.339,0.624-0.621C824.446,683.309,824.529,682.791,823.847,682.488z"/>
	<path fill="#E81D26" d="M797.806,676.662c-0.087-0.382-0.581-0.521-1.159-0.478c-0.581,0.152-0.842,0.435-0.706,0.821
		c0.121,0.328,0.303,0.721,0.963,0.625C797.633,677.526,797.91,677.097,797.806,676.662z"/>
	<path fill="#E81D26" d="M773.279,640.012c-0.315,0.039-0.585,0.301-0.437,0.47c0.477,0.568,0.858,1.254,2.039,1.298
		c0.312,0.008,0.373-0.277,0.291-0.525C774.635,640.802,774.795,639.826,773.279,640.012z"/>
	<path fill="#E81D26" d="M817.514,674.674c-0.029-0.429-0.391-0.556-0.621-0.42c-0.677,0.395-1.997,0.265-2.057,1.141
		c-0.022,0.252,0.291,0.377,0.615,0.355C816.55,675.677,816.768,674.892,817.514,674.674z"/>
	<path fill="#E81D26" d="M783.654,594.307c0.478,0.104,0.878-0.09,0.843-0.426c-0.039-0.407-0.595-0.512-1.099-0.607
		c-0.335-0.004-0.702,0.061-0.681,0.305C782.752,593.951,783.165,594.198,783.654,594.307z"/>
	<path fill="#E81D26" d="M834.769,670.798c-0.386-0.473-1.024-0.824-1.866-0.858c-0.479-0.023-0.703,0.377-0.451,0.641
		c0.434,0.461,0.954,0.926,1.948,0.782C834.718,671.319,834.803,671.062,834.769,670.798z"/>
	<path fill="#E81D26" d="M782.188,699.378c-0.343-0.013-0.612,0.204-0.547,0.413c0.157,0.49,0.577,0.847,1.42,0.807
		c0.312-0.018,0.55-0.177,0.556-0.547C783.507,699.626,782.934,699.408,782.188,699.378z"/>
	<path fill="#E81D26" d="M848.477,662.42c-0.339-0.057-0.538,0.187-0.563,0.455c0.152,0.486,0.517,0.903,1.324,0.964
		c0.359,0.026,0.425-0.277,0.32-0.478C849.35,662.971,849.155,662.527,848.477,662.42z"/>
	<path fill="#E81D26" d="M822.779,692.664c0.647-0.019,1.268-0.105,1.605-0.553c0.025-0.269-0.195-0.421-0.529-0.399
		c-0.624,0.043-1.307,0.126-1.605,0.573C822.102,692.511,822.428,692.672,822.779,692.664z"/>
	<path fill="#E81D26" d="M779.309,653.456c-0.368-0.586-1.123-0.469-1.861-0.368c-0.477,0.064-0.829,0.246-0.581,0.585
		c0.342,0.478,1.062,0.312,1.667,0.304C778.997,653.969,779.361,653.855,779.309,653.456z"/>
	<path fill="#E81D26" d="M767.367,646.554c0.078-0.438,0.057-0.868-0.603-1.081c-0.295-0.095-0.708,0.014-0.755,0.227
		c-0.109,0.516,0.208,0.941,0.733,1.271C767.154,646.944,767.328,646.775,767.367,646.554z"/>
	<path fill="#E81D26" d="M808.91,675.069c-0.434,0.126-0.582,0.421-0.396,0.707c0.201,0.317,0.456,0.674,1.116,0.491
		c0.442-0.121,0.499-0.426,0.369-0.742C809.799,675.229,809.583,674.873,808.91,675.069z"/>
	<path fill="#E81D26" d="M850.887,659.98c-0.108-0.234-0.33-0.383-0.655-0.374c-0.647,0.022-0.868,0.331-0.895,0.708
		c-0.014,0.226,0.126,0.435,0.516,0.365C850.383,660.584,850.781,660.357,850.887,659.98z"/>
	<path fill="#E81D26" d="M775.194,660.167c-0.27-0.403-0.772-0.655-1.468-0.625c-0.269,0.013-0.534,0.183-0.833,0.296
		c0.339,0.603,1.206,0.48,1.811,0.65C774.999,660.57,775.389,660.457,775.194,660.167z"/>
	<path fill="#E81D26" d="M816.78,682.719c-0.543,0.072-0.92,0.333-0.804,0.732c0.087,0.287,0.431,0.421,0.934,0.396
		c0.5-0.108,0.855-0.343,0.756-0.738C817.588,682.818,817.2,682.657,816.78,682.719z"/>
	<path fill="#E81D26" d="M833.24,686.204c-0.403-0.009-0.945-0.027-1.05,0.312c-0.127,0.413,0.312,0.651,0.88,0.691
		c0.465,0.034,0.809-0.14,0.908-0.525C833.997,686.382,833.718,686.213,833.24,686.204z"/>
	<path fill="#E81D26" d="M824.203,699.469c-0.365,0.021-0.495,0.248-0.49,0.465c0.004,0.223,0.156,0.386,0.529,0.404
		c0.342-0.074,0.494-0.252,0.49-0.474C824.732,699.635,824.55,699.452,824.203,699.469z"/>
	<path fill="#E81D26" d="M824.211,672.651c-0.021,0.243,0.348,0.321,0.683,0.281c0.638-0.073,1.202-0.233,1.414-0.615
		c-0.146-0.426-0.477-0.587-0.924-0.542C824.676,671.848,824.256,672.183,824.211,672.651z"/>
	<path fill="#E81D26" d="M778.749,702.478c-0.009,0.504,0.6,0.422,1.103,0.422c0.387,0,0.834,0.072,0.804-0.365
		c-0.217-0.313-0.512-0.582-1.086-0.569C779.114,701.974,778.749,702.174,778.749,702.478z"/>
	<path fill="#E81D26" d="M853.678,661.443c0.039-0.33-0.329-0.512-0.794-0.387c-0.534,0.152-0.752,0.508-0.743,0.868
		c0.006,0.222,0.33,0.312,0.737,0.309C853.365,662.103,853.644,661.795,853.678,661.443z"/>
	<path fill="#E81D26" d="M808.658,687.089c0.36,0.321,0.691,0.708,1.434,0.652c0.104-0.011,0.194-0.21,0.295-0.326
		c-0.369-0.344-0.853-0.586-1.508-0.626C808.65,686.776,808.51,686.955,808.658,687.089z"/>
	<path fill="#E81D26" d="M812.631,678.833c0.242,0.356,0.681,0.659,1.323,0.695c0.291,0.017,0.56-0.123,0.573-0.456
		c-0.135-0.422-0.855-0.37-1.368-0.5C812.898,678.502,812.466,678.598,812.631,678.833z"/>
	<path fill="#E81D26" d="M854.203,664.264c0.572,0.053,0.981-0.125,1.124-0.533c0-0.342-0.325-0.473-0.76-0.473
		c-0.498,0.009-1.094,0.043-1.137,0.5C853.408,664.048,853.79,664.23,854.203,664.264z"/>
	<path fill="#E81D26" d="M856.599,659.221c-0.051-0.33-0.39-0.469-0.82-0.481c-0.333-0.014-0.594,0.151-0.634,0.382
		c-0.06,0.32,0.203,0.538,0.646,0.576C856.26,659.742,856.533,659.542,856.599,659.221z"/>
	<path fill="#E81D26" d="M782.578,688.981c0.118,0.295,0.529,0.46,0.951,0.364c0.469-0.1,0.187-0.334,0.009-0.46
		c-0.248-0.174-0.292-0.503-0.86-0.517C782.635,688.591,782.508,688.808,782.578,688.981z"/>
	<path fill="#E81D26" d="M815.638,681.299c0.17,0.381,0.6,0.511,1.177,0.355c0.301-0.078,0.491-0.269,0.438-0.485
		c-0.091-0.388-0.438-0.583-1.054-0.513C815.752,680.777,815.508,680.999,815.638,681.299z"/>
	<path fill="#E81D26" d="M762.332,653.552c-0.354,0.343,0.165,0.261,0.413,0.226c0.382-0.061,0.751-0.165,1.206-0.261
		c-0.248-0.151-0.407-0.317-0.507-0.296C763.053,653.295,762.533,653.361,762.332,653.552z"/>
	<path fill="#E81D26" d="M768.11,603.176c0.465-0.083,0.655-0.33,0.573-0.651c-0.104-0.208-0.331-0.391-0.651-0.339
		c-0.473,0.078-0.6,0.377-0.552,0.664C767.52,603.076,767.771,603.236,768.11,603.176z"/>
	<path fill="#E81D26" d="M856.361,675.178c0.299-0.044,0.56-0.169,0.473-0.5c-0.07-0.143-0.335-0.212-0.639-0.178
		c-0.421,0.044-0.886,0.205-0.82,0.495C855.449,675.326,855.986,675.229,856.361,675.178z"/>
	<path fill="#E81D26" d="M806.614,670.546c0.052,0.313,0.373,0.525,0.825,0.509c0.485-0.014,0.742-0.273,0.659-0.6
		c-0.083-0.331-0.46-0.422-0.933-0.378C806.84,670.16,806.574,670.304,806.614,670.546z"/>
	<path fill="#E81D26" d="M836.849,596.014c0.057,0.334,0.46,0.391,0.89,0.385c0.441-0.077,0.781-0.246,0.629-0.568
		c-0.139-0.299-0.561-0.342-0.993-0.269C837.035,595.617,836.805,595.791,836.849,596.014z"/>
	<path fill="#E81D26" d="M812.835,662.06c-0.335,0.122-1.016,0.183-0.816,0.499c0.29,0.465,1.09,0.101,1.649,0.174
		c0.333,0.048,0.438-0.217,0.398-0.451C813.811,661.912,813.354,661.877,812.835,662.06z"/>
	<path fill="#E81D26" d="M821.837,688.131c0.442-0.035,0.808-0.195,0.852-0.521c0.034-0.252-0.227-0.398-0.565-0.373
		c-0.456,0.026-0.742,0.244-0.863,0.547C821.26,688.044,821.482,688.165,821.837,688.131z"/>
	<path fill="#E81D26" d="M772.872,708.264c-0.218,0.109-0.517,0.209-0.504,0.256c0.161,0.509,0.947,0.431,1.445,0.621
		c0.257,0.096,0.729-0.009,0.564-0.27C774.119,708.454,773.39,708.433,772.872,708.264z"/>
	<path fill="#E81D26" d="M772.546,694.79c-0.065,0.233,0.17,0.395,0.521,0.364c0.416-0.035,0.79-0.165,0.895-0.491
		c-0.031-0.229-0.208-0.395-0.556-0.386C772.959,694.295,772.629,694.489,772.546,694.79z"/>
	<path fill="#E81D26" d="M802.381,669.856c-0.261-0.27-0.489-0.591-1.076-0.578c-0.356,0.013-0.59,0.183-0.481,0.408
		c0.208,0.438,0.868,0.469,1.401,0.595C802.694,670.186,802.533,670.008,802.381,669.856z"/>
	<path fill="#E81D26" d="M821.812,678.286c-0.499-0.026-0.8,0.182-0.791,0.513c0.009,0.237,0.288,0.373,0.644,0.351
		c0.347-0.026,0.55-0.195,0.62-0.434C822.311,678.477,822.154,678.299,821.812,678.286z"/>
	<path fill="#E81D26" d="M807.503,679.384c0.344-0.008,0.5-0.199,0.526-0.426c-0.062-0.282-0.248-0.507-0.717-0.49
		c-0.342,0.014-0.524,0.2-0.516,0.427C806.806,679.189,807.043,679.396,807.503,679.384z"/>
	<path fill="#E81D26" d="M776.436,643.342c0.274-0.064,0.543-0.277,0.34-0.568c-0.096-0.135-0.456-0.266-0.679-0.248
		c-0.477,0.048-0.655,0.316-0.529,0.608C775.654,643.333,775.928,643.42,776.436,643.342z"/>
	<path fill="#E81D26" d="M809.744,662.967c-0.304,0.091-0.443,0.3-0.344,0.504c0.14,0.287,0.469,0.438,0.934,0.291
		c0.294-0.096,0.408-0.291,0.359-0.509C810.512,662.975,810.208,662.828,809.744,662.967z"/>
	<path fill="#E81D26" d="M810.607,699.175c0.086,0.125,0.495,0.203,0.75,0.19c0.313-0.017,0.525-0.204,0.483-0.513
		c-0.07-0.155-0.318-0.261-0.643-0.221C810.76,698.679,810.378,698.844,810.607,699.175z"/>
	<path fill="#E81D26" d="M804.639,669.104c0.053,0.309,0.365,0.451,0.838,0.43c0.334-0.078,0.543-0.252,0.382-0.451
		c-0.13-0.157-0.412-0.299-0.677-0.343C804.821,668.675,804.601,668.866,804.639,669.104z"/>
	<path fill="#E81D26" d="M776.019,601.765c0.031,0.226,0.27,0.364,0.626,0.304c0.309-0.053,0.573-0.174,0.6-0.6
		c-0.005-0.061-0.188-0.207-0.526-0.217C776.218,601.24,775.976,601.443,776.019,601.765z"/>
	<path fill="#E81D26" d="M815.5,699.253c-0.14,0.051-0.261,0.237-0.257,0.355c0.009,0.2,0.083,0.478,0.456,0.421
		c0.195-0.03,0.322-0.32,0.435-0.447C816.051,699.278,815.86,699.13,815.5,699.253z"/>
	<path fill="#E81D26" d="M801.2,682.666c0.136-0.317-0.078-0.521-0.52-0.612c-0.348,0.021-0.578,0.156-0.578,0.382
		c-0.009,0.3,0.213,0.517,0.69,0.495C800.936,682.922,801.157,682.77,801.2,682.666z"/>
	<path fill="#E81D26" d="M770.477,630.888c-0.5-0.048-0.83,0.126-0.782,0.481c0.03,0.23,0.312,0.361,0.655,0.356
		c0.36,0,0.564-0.156,0.617-0.396C770.967,631.101,770.806,630.918,770.477,630.888z"/>
	<path fill="#E81D26" d="M822.632,690.857c0.187-0.131,0.044-0.277-0.235-0.227c-0.295,0.057-0.606,0.157-0.823,0.304
		c-0.18,0.122-0.036,0.248,0.329,0.252C822.11,691.1,822.419,691.009,822.632,690.857z"/>
	<path fill="#E81D26" d="M784.189,685.388c0.269,0,0.355-0.104,0.252-0.261c-0.326-0.19-0.717-0.221-1.113-0.112
		c-0.233,0.06-0.241,0.238-0.021,0.295C783.576,685.375,783.89,685.388,784.189,685.388z"/>
	<path fill="#E81D26" d="M835.489,679.623c-0.19-0.192-0.485-0.234-0.808-0.182c-0.339,0.055-0.629,0.216-0.407,0.442
		c0.138,0.13,0.512,0.217,0.776,0.208C835.398,680.075,835.567,679.87,835.489,679.623z"/>
	<path fill="#E81D26" d="M784.145,696.552c-0.346,0.021-0.59,0.157-0.59,0.382c0,0.339,0.353,0.465,0.804,0.426
		c0.356-0.035,0.499-0.234,0.438-0.455C784.731,696.686,784.483,696.569,784.145,696.552z"/>
	<path fill="#E81D26" d="M766.727,698.106c-0.127-0.005-0.273,0.174-0.414,0.269c-0.004,0.231,0.126,0.422,0.482,0.426
		c0.126,0.005,0.355-0.165,0.396-0.273C767.273,698.288,767.072,698.114,766.727,698.106z"/>
	<path fill="#E81D26" d="M771.405,652.636c-0.373-0.005-0.621,0.169-0.491,0.395c0.091,0.157,0.382,0.321,0.634,0.356
		c0.364,0.043,0.525-0.152,0.491-0.399C771.948,652.774,771.738,652.636,771.405,652.636z"/>
	<path fill="#E81D26" d="M828.067,648.047c-0.123,0.053-0.227,0.261-0.179,0.356c0.108,0.222,0.416,0.304,0.729,0.164
		c0.125-0.051,0.143-0.233,0.208-0.354C828.648,648.021,828.383,647.912,828.067,648.047z"/>
	<path fill="#E81D26" d="M796.886,684.672c0.17,0.178,0.481,0.225,0.76,0.1c0.131-0.062,0.252-0.244,0.218-0.344
		c-0.074-0.221-0.348-0.299-0.699-0.242C796.86,684.298,796.699,684.468,796.886,684.672z"/>
	<path fill="#E81D26" d="M832.907,659.581c-0.078-0.1-0.127-0.261-0.248-0.29c-0.136-0.027-0.417,0.033-0.5,0.111
		c-0.233,0.234-0.017,0.369,0.305,0.378C832.598,659.785,832.759,659.655,832.907,659.581z"/>
	<path fill="#E81D26" d="M794.686,675.013c0.107-0.043,0.121-0.217,0.199-0.382c-0.212-0.078-0.447-0.239-0.664-0.217
		c-0.348,0.026-0.392,0.26-0.248,0.438C794.111,675.029,794.391,675.116,794.686,675.013z"/>
	<path fill="#E81D26" d="M782.652,692.876c0.108,0.029,0.382-0.062,0.473-0.144c0.083-0.087,0.027-0.229,0.035-0.348
		c-0.178,0.014-0.399-0.014-0.521,0.048C782.374,692.575,782.301,692.776,782.652,692.876z"/>
	<path fill="#E81D26" d="M826.946,698.566c0.04,0.087,0.309,0.182,0.451,0.165c0.344-0.043,0.465-0.226,0.409-0.451
		c-0.152-0.062-0.322-0.183-0.456-0.161C827.016,698.167,826.851,698.358,826.946,698.566z"/>
	<path fill="#E81D26" d="M773.346,661.69c0.091,0.065,0.39,0.078,0.494,0.022c0.113-0.053,0.1-0.222,0.139-0.34
		c-0.16-0.043-0.352-0.155-0.473-0.121C773.163,661.334,773.119,661.535,773.346,661.69z"/>
	<path fill="#E81D26" d="M806.258,702.056c0.096,0.087,0.361,0.136,0.543,0.123c0.334-0.023,0.556-0.157,0.516-0.418
		c-0.174-0.194-0.455-0.261-0.771-0.178C806.219,701.666,806.027,701.848,806.258,702.056z"/>
	<path fill="#E81D26" d="M817.501,693.839c-0.33,0.078-0.504,0.243-0.485,0.469c0.021,0.227,0.225,0.392,0.568,0.352
		c0.324-0.043,0.516-0.242,0.507-0.46C818.082,693.966,817.849,693.849,817.501,693.839z"/>
	<path fill="#E81D26" d="M786.933,696.318c0.029,0.092,0.256,0.204,0.395,0.199c0.352-0.008,0.46-0.19,0.43-0.396
		c-0.135-0.077-0.261-0.221-0.386-0.217C787.032,695.923,786.867,696.109,786.933,696.318z"/>
	<path fill="#E81D26" d="M775.662,655.404c0.34-0.004,0.526-0.173,0.526-0.411c-0.062-0.213-0.229-0.387-0.568-0.374
		c-0.331,0.018-0.525,0.195-0.513,0.421C775.121,655.271,775.347,655.414,775.662,655.404z"/>
	<path fill="#E81D26" d="M824.775,693.758c0.065,0.094,0.287,0.182,0.447,0.185c0.33,0.006,0.543-0.125,0.538-0.373
		c-0.125-0.19-0.342-0.324-0.655-0.265C824.794,693.366,824.633,693.557,824.775,693.758z"/>
	<path fill="#E81D26" d="M815.127,665.585c0.038,0.225,0.373,0.299,0.697,0.294c0.339-0.004,0.674-0.139,0.6-0.359
		c-0.047-0.144-0.426-0.227-0.572-0.291C815.374,665.232,815.078,665.332,815.127,665.585z"/>
	<path fill="#E81D26" d="M809.926,666.07c0.104,0.296,0.429,0.451,0.891,0.382c0.338-0.047,0.507-0.247,0.441-0.46
		c-0.085-0.304-0.424-0.417-0.88-0.377C810.047,665.688,809.852,665.858,809.926,666.07z"/>
	<path fill="#E81D26" d="M779.18,694.5c0.013,0.221,0.225,0.346,0.572,0.346c0.348-0.047,0.521-0.217,0.518-0.429
		c-0.005-0.218-0.223-0.373-0.561-0.339C779.383,694.104,779.162,694.277,779.18,694.5z"/>
	<path fill="#E81D26" d="M844.788,638.397c0.047,0.091,0.32,0.116,0.489,0.179c0.365-0.07,0.564-0.235,0.452-0.47
		c-0.047-0.087-0.329-0.183-0.49-0.165C844.888,637.977,844.662,638.158,844.788,638.397z"/>
	<path fill="#E81D26" d="M808.397,667.043c-0.335-0.009-0.604,0.139-0.598,0.373c0,0.1,0.203,0.239,0.364,0.273
		c0.308,0.065,0.577-0.021,0.707-0.316C808.894,667.195,808.724,667.043,808.397,667.043z"/>
	<path fill="#E81D26" d="M821.951,669.587c-0.161-0.192-0.409-0.286-0.721-0.156c-0.282,0.121-0.378,0.326-0.183,0.503
		c0.095,0.082,0.352,0.14,0.507,0.118C821.881,669.994,822.072,669.838,821.951,669.587z"/>
	<path fill="#E81D26" d="M826.999,669.36c0,0-0.183-0.156-0.53-0.15c-0.329,0.009-0.59,0.146-0.643,0.364
		c-0.074,0.325,0.174,0.512,0.664,0.45C826.816,669.986,827.021,669.816,826.999,669.36z"/>
	<path fill="#E81D26" d="M829.78,667.794c0.036-0.257-0.163-0.396-0.516-0.378c-0.161,0.009-0.435,0.126-0.46,0.213
		c-0.069,0.239,0.161,0.395,0.507,0.387C829.465,668.012,829.625,667.872,829.78,667.794z"/>
	<path fill="#E81D26" d="M789.719,687.605c0.061,0.092,0.287,0.174,0.442,0.165c0.235-0.008,0.313-0.152,0.244-0.303
		c-0.152-0.058-0.304-0.11-0.456-0.166C789.862,687.406,789.676,687.549,789.719,687.605z"/>
	<path fill="#E81D26" d="M841.458,687.05c0.1,0.104,0.196,0.208,0.29,0.308c0.161-0.06,0.322-0.121,0.479-0.182
		c-0.096-0.104-0.165-0.261-0.305-0.295C841.818,686.855,841.618,686.984,841.458,687.05z"/>
	<path fill="#E81D26" d="M815.922,685.562c0.125-0.062,0.15-0.227,0.221-0.343c-0.17-0.191-0.431-0.282-0.729-0.152
		c-0.126,0.053-0.235,0.252-0.191,0.339C815.326,685.617,815.616,685.695,815.922,685.562z"/>
	<path fill="#E81D26" d="M840.238,599.664c0.339,0.043,0.581-0.1,0.56-0.334c-0.004-0.092-0.225-0.17-0.352-0.257
		c-0.174,0.048-0.431,0.065-0.503,0.151C839.766,599.438,839.903,599.62,840.238,599.664z"/>
	<path fill="#E81D26" d="M839.639,685.856c0.019,0.096,0.235,0.174,0.364,0.261c0.118-0.104,0.239-0.208,0.356-0.31
		c-0.134-0.081-0.265-0.163-0.395-0.246C839.848,685.661,839.626,685.77,839.639,685.856z"/>
	<path fill="#E81D26" d="M767.337,667.945c0.021,0.113,0.152,0.261,0.301,0.305c0.195,0.057,0.354-0.062,0.391-0.23
		c-0.096-0.1-0.161-0.252-0.3-0.291C767.511,667.668,767.308,667.781,767.337,667.945z"/>
	<path fill="#E81D26" d="M851.941,687.071c-0.026,0-0.104,0.123-0.1,0.183c0.004,0.165,0.152,0.235,0.398,0.205
		c0.227-0.065,0.343-0.196,0.205-0.313C852.358,687.071,852.115,687.08,851.941,687.071z"/>
	<path fill="#E81D26" d="M829.503,656.598c-0.221,0.24-0.018,0.418,0.321,0.47c0.152,0.021,0.456-0.061,0.526-0.151
		c0.182-0.222,0.068-0.413-0.326-0.49C829.863,656.477,829.594,656.503,829.503,656.598z"/>
	<path fill="#E81D26" d="M764.159,649.652c-0.143,0.157-0.074,0.287,0.179,0.305c0.243,0.018,0.364-0.1,0.294-0.27
		c-0.017-0.047-0.142-0.077-0.221-0.117C764.324,649.602,764.199,649.61,764.159,649.652z"/>
	<path fill="#E81D26" d="M839.57,675.882c-0.104,0.112-0.27,0.225-0.296,0.346c-0.034,0.165,0.165,0.23,0.364,0.118
		c0.14-0.078,0.261-0.222,0.283-0.343C839.952,675.829,839.787,675.785,839.57,675.882z"/>
	<path fill="#E81D26" d="M763.192,645.091c-0.074-0.005-0.204,0.039-0.248,0.087c-0.138,0.144-0.047,0.239,0.221,0.204
		c0.165-0.022,0.317-0.122,0.496-0.196C763.496,645.152,763.354,645.104,763.192,645.091z"/>
	<path fill="#E81D26" d="M824.434,680.005c-0.387,0.018-0.5,0.226-0.378,0.429c0.047,0.083,0.347,0.161,0.478,0.127
		c0.138-0.04,0.212-0.208,0.343-0.343C824.732,680.144,824.584,680.005,824.434,680.005z"/>
	<path fill="#E81D26" d="M843.354,678.312c-0.165,0.035-0.286,0.183-0.43,0.277c0.144,0.074,0.282,0.148,0.435,0.227
		c0.144-0.057,0.422-0.104,0.469-0.199C843.963,678.347,843.702,678.246,843.354,678.312z"/>
	<path fill="#E81D26" d="M777.049,638.728c0.125-0.061,0.138-0.239,0.203-0.36c-0.144-0.069-0.313-0.213-0.421-0.191
		c-0.353,0.078-0.465,0.287-0.291,0.486C776.605,638.731,776.944,638.775,777.049,638.728z"/>
	<path fill="#E81D26" d="M800.454,694.591c-0.043-0.122-0.139-0.235-0.217-0.348c-0.091,0.112-0.178,0.226-0.269,0.344
		c0.013,0.182,0.146,0.255,0.377,0.187C800.411,694.755,800.476,694.642,800.454,694.591z"/>
	<path fill="#E81D26" d="M807.76,683.989c0.065,0.097,0.178,0.174,0.277,0.261c0.036-0.056,0.07-0.113,0.104-0.17
		c-0.096-0.085-0.195-0.174-0.295-0.259C807.816,683.877,807.734,683.955,807.76,683.989z"/>
	<path fill="#E81D26" d="M811.276,675.156c-0.114,0.039-0.148,0.199-0.218,0.308c0.144,0.062,0.305,0.183,0.43,0.165
		c0.356-0.044,0.435-0.243,0.273-0.421C811.696,675.144,811.406,675.112,811.276,675.156z"/>
	<path fill="#E81D26" d="M813.733,674.019c-0.152-0.047-0.305-0.096-0.456-0.143c-0.061,0.112-0.209,0.251-0.16,0.32
		c0.051,0.083,0.286,0.104,0.442,0.148C813.615,674.235,813.672,674.127,813.733,674.019z"/>
	<path fill="#E81D26" d="M789.004,600.098c-0.062-0.043-0.119-0.121-0.188-0.121c-0.242-0.018-0.373,0.073-0.373,0.226
		c0.062,0.044,0.169,0.13,0.178,0.126C788.756,600.258,788.877,600.176,789.004,600.098z"/>
	<path fill="#E81D26" d="M816.181,669.505c-0.009,0.112,0.118,0.225,0.187,0.337c0.156-0.063,0.317-0.129,0.475-0.194
		c-0.078-0.108-0.114-0.261-0.244-0.316C816.402,669.248,816.185,669.335,816.181,669.505z"/>
	<path fill="#E81D26" d="M795.137,683.486c-0.035,0.043,0.009,0.138,0.068,0.178c0.18,0.108,0.37,0.078,0.482-0.074
		c0.03-0.042-0.044-0.121-0.064-0.182C795.432,683.312,795.249,683.33,795.137,683.486z"/>
	<path fill="#E81D26" d="M773.549,692.342c-0.025,0.062-0.1,0.161-0.074,0.174c0.223,0.112,0.344,0.065,0.335-0.131
		C773.723,692.371,773.636,692.358,773.549,692.342z"/>
	<path fill="#E81D26" d="M801.504,680.135c0.234-0.087,0.239-0.208,0.01-0.291c-0.057-0.017-0.209,0.026-0.261,0.07
		c-0.048,0.038-0.021,0.117-0.025,0.178C801.323,680.109,801.439,680.156,801.504,680.135z"/>
	<polygon fill="#E81D26" points="788.217,690.588 788.325,690.466 788.122,690.476 	"/>
	<path fill="#E81D26" d="M813.1,694.23c-0.019-0.04-0.14-0.087-0.192-0.078c-0.242,0.047-0.282,0.146-0.104,0.261
		c0.04,0.021,0.156-0.009,0.234-0.015C813.064,694.339,813.117,694.277,813.1,694.23z"/>
	<path fill="#E81D26" d="M771.626,684.472c-0.017,0.039,0.053,0.121,0.104,0.13c0.064,0.004,0.147-0.051,0.218-0.083
		c-0.04-0.042-0.083-0.095-0.123-0.138C771.757,684.406,771.643,684.432,771.626,684.472z"/>
	<path fill="#E81D26" d="M832.503,683.942c0.061-0.026,0.078-0.117,0.112-0.174c-0.064-0.039-0.13-0.117-0.195-0.112
		c-0.27,0.017-0.344,0.125-0.187,0.26C832.277,683.955,832.433,683.964,832.503,683.942z"/>
	<path fill="#E81D26" d="M791.121,694.125c-0.187-0.086-0.352-0.06-0.438,0.088c-0.025,0.048,0.047,0.16,0.062,0.16
		c0.155-0.018,0.308-0.047,0.456-0.078C791.173,694.239,791.147,694.182,791.121,694.125z"/>
	<path fill="#E81D26" d="M777.92,600.432c0.079-0.1,0.121-0.213,0.174-0.316c-0.16-0.004-0.32-0.004-0.477-0.01
		c0.013,0.109,0.017,0.218,0.06,0.322C777.687,600.445,777.903,600.453,777.92,600.432z"/>
	<path fill="#E81D26" d="M785.968,682.253c-0.051,0.286,0.235,0.343,0.556,0.214c0.131-0.049,0.165-0.227,0.244-0.344
		c-0.143-0.057-0.322-0.183-0.422-0.156C786.186,682.011,785.986,682.148,785.968,682.253z"/>
	<polygon fill="#E81D26" points="818.491,668.605 818.62,668.511 818.447,668.488 	"/>
	<path fill="#E81D26" d="M814.206,681.911c0.074,0.013,0.165,0.047,0.229,0.029c0.057-0.017,0.136-0.091,0.127-0.131
		c-0.044-0.155-0.183-0.177-0.352-0.056C814.171,681.784,814.202,681.858,814.206,681.911z"/>
	<path fill="#E81D26" d="M822.775,681.116c-0.031-0.157-0.161-0.217-0.379-0.157c-0.06,0.018-0.117,0.104-0.117,0.104
		c0.014,0.209,0.157,0.27,0.374,0.209C822.714,681.254,822.735,681.169,822.775,681.116z"/>
	<path fill="#E81D26" d="M816.121,691.117c0.06,0.044,0.107,0.122,0.178,0.126c0.242,0.021,0.373-0.069,0.342-0.227
		c-0.013-0.051-0.104-0.129-0.172-0.134C816.225,690.866,816.107,690.957,816.121,691.117z"/>
	<path fill="#E81D26" d="M791.242,692.923c-0.125-0.06-0.239-0.125-0.377-0.168c-0.034-0.01-0.165,0.063-0.199,0.112
		c-0.108,0.151-0.03,0.277,0.199,0.27C790.99,693.132,791.117,693.001,791.242,692.923z"/>
	<path fill="#E81D26" d="M812.131,683.359c-0.082-0.021-0.217-0.072-0.243-0.056c-0.226,0.147-0.179,0.235,0.118,0.229
		C812.044,683.478,812.087,683.416,812.131,683.359z"/>
	<path fill="#E81D26" d="M822.415,686.026c0.052,0.008,0.204-0.062,0.204-0.062c-0.04-0.191-0.161-0.208-0.34-0.074
		C822.324,685.939,822.354,686.013,822.415,686.026z"/>
	<path fill="#E81D26" d="M838.775,674.188c-0.156,0.121-0.117,0.217,0.096,0.235c0.057,0.009,0.169-0.048,0.195-0.097
		c0.025-0.034-0.034-0.094-0.056-0.146C838.928,674.184,838.81,674.162,838.775,674.188z"/>
	<polygon fill="#E81D26" points="838.746,682.166 838.893,682.02 838.636,682.027 	"/>
	<path fill="#E81D26" d="M829.091,682.271c-0.021,0.051-0.082,0.138-0.061,0.146c0.194,0.104,0.294,0.062,0.286-0.108
		C829.242,682.297,829.17,682.284,829.091,682.271z"/>
	<path fill="#E81D26" d="M835.75,677.166c0.13,0.013,0.308-0.105,0.46-0.169c-0.078-0.104-0.116-0.261-0.252-0.304
		c-0.299-0.102-0.59-0.022-0.59,0.238C835.368,677.019,835.594,677.149,835.75,677.166z"/>
	<path fill="#E81D26" d="M812.996,695.554c-0.04-0.19-0.201-0.221-0.405-0.074c-0.051,0.04-0.021,0.127-0.029,0.187
		c0.091,0.015,0.194,0.053,0.269,0.036C812.904,695.685,813.004,695.598,812.996,695.554z"/>
	<path fill="#E81D26" d="M854.754,684.692c0.009,0.166,0.152,0.208,0.348,0.108c0.056-0.029,0.087-0.125,0.062-0.165
		c-0.027-0.038-0.148-0.043-0.227-0.064C854.871,684.614,854.754,684.658,854.754,684.692z"/>
	<path fill="#E81D26" d="M809.123,695.598c-0.139-0.019-0.32,0.092-0.481,0.146c0.082,0.1,0.165,0.204,0.252,0.305
		c0.159-0.057,0.316-0.113,0.478-0.173C809.288,695.775,809.235,695.61,809.123,695.598z"/>
	<path fill="#E81D26" d="M832.386,676.666c0.229,0.121,0.36,0.07,0.352-0.134c-0.091-0.019-0.183-0.035-0.273-0.048
		C832.433,676.545,832.355,676.649,832.386,676.666z"/>
	<path fill="#E81D26" d="M792.618,685.978c0.058,0.087,0.353,0.148,0.509,0.122c0.121-0.018,0.195-0.196,0.316-0.334
		c-0.134-0.065-0.278-0.195-0.42-0.195C792.645,685.574,792.457,685.753,792.618,685.978z"/>
	<path fill="#E81D26" d="M851.729,684.424c-0.078,0.029-0.203,0.053-0.221,0.095c-0.022,0.04,0.052,0.132,0.108,0.145
		c0.06,0.009,0.155-0.053,0.233-0.083C851.812,684.527,851.768,684.477,851.729,684.424z"/>
	<path fill="#E81D26" d="M842.239,682.388c-0.017,0.021,0.121,0.126,0.152,0.121c0.155-0.038,0.295-0.104,0.442-0.16
		c-0.104-0.077-0.208-0.151-0.312-0.226C842.426,682.21,842.313,682.293,842.239,682.388z"/>
	<path fill="#E81D26" d="M776.854,615.343c0.034,0.034,0.183,0.044,0.246,0.018c0.065-0.022,0.083-0.104,0.121-0.155
		c-0.06-0.045-0.121-0.118-0.172-0.113C776.797,615.113,776.718,615.213,776.854,615.343z"/>
	<path fill="#E81D26" d="M814.492,703.012c-0.16,0.134-0.112,0.233,0.126,0.256c0.065,0.005,0.19-0.057,0.214-0.104
		c0.021-0.044-0.058-0.109-0.087-0.161C814.658,703.003,814.527,702.986,814.492,703.012z"/>
	<path fill="#E81D26" d="M852.511,646.193c-0.074,0.104-0.165,0.209-0.218,0.317c-0.009,0.017,0.174,0.108,0.208,0.096
		c0.144-0.062,0.265-0.144,0.396-0.218C852.766,646.319,852.641,646.259,852.511,646.193z"/>
	<path fill="#E81D26" d="M817.01,703.194c0.027,0.051,0.069,0.146,0.069,0.146c0.17-0.018,0.344-0.047,0.518-0.077
		c-0.026-0.053-0.053-0.148-0.07-0.148C817.353,703.133,817.184,703.168,817.01,703.194z"/>
	<path fill="#E81D26" d="M811.497,705.164c0.021,0.156,0.131,0.174,0.3,0.053c-0.035-0.044-0.057-0.112-0.108-0.121
		S811.497,705.143,811.497,705.164z"/>
	<path fill="#E81D26" d="M850.618,628.564c-0.235,0.014-0.344,0.131-0.287,0.297c0.021,0.061,0.086,0.139,0.164,0.155
		c0.239,0.062,0.404-0.017,0.466-0.19C850.974,628.656,850.86,628.553,850.618,628.564z"/>
	<path fill="#E81D26" d="M854.697,657.397c0.118-0.074,0.239-0.147,0.356-0.222c-0.061-0.043-0.161-0.126-0.17-0.121
		c-0.13,0.064-0.242,0.139-0.358,0.213C854.58,657.311,854.642,657.354,854.697,657.397z"/>
	<path fill="#E81D26" d="M790.848,699.925c-0.135,0.134-0.078,0.248,0.134,0.316c0.153-0.06,0.301-0.121,0.452-0.177
		c-0.117-0.082-0.221-0.174-0.352-0.239C791.056,699.809,790.895,699.877,790.848,699.925z"/>
	<path fill="#E81D26" d="M851.498,658.69c0.104,0.101,0.317,0.204,0.479,0.196c0.225-0.014,0.299-0.17,0.221-0.33
		c-0.165-0.061-0.324-0.178-0.494-0.17C851.447,658.392,851.343,658.553,851.498,658.69z"/>
	<path fill="#E81D26" d="M852.441,653.525c0.047,0.035,0.203,0.052,0.277,0.026c0.068-0.018,0.1-0.104,0.134-0.153
		c-0.068-0.047-0.138-0.125-0.212-0.129C852.35,653.27,852.268,653.369,852.441,653.525z"/>
	<path fill="#E81D26" d="M799.377,701.301c-0.161,0.148-0.087,0.252,0.178,0.261c0.062,0,0.183-0.078,0.2-0.125
		c0.014-0.053-0.073-0.11-0.108-0.161C799.551,701.284,799.408,701.267,799.377,701.301z"/>
	<path fill="#E81D26" d="M798.979,659.295c-0.096-0.074-0.348-0.062-0.525-0.092c-0.074,0.113-0.234,0.256-0.188,0.33
		c0.058,0.092,0.3,0.182,0.447,0.164C799.069,659.664,799.216,659.49,798.979,659.295z"/>
	<polygon fill="#E81D26" points="795.188,698.318 795.254,698.167 795.022,698.21 	"/>
	<path fill="#E81D26" d="M816.358,663.162c-0.056-0.03-0.108-0.096-0.163-0.096c-0.231,0.018-0.297,0.113-0.153,0.226
		c0.034,0.035,0.17,0.044,0.222,0.022C816.32,663.292,816.329,663.215,816.358,663.162z"/>
	<path fill="#E81D26" d="M770.15,668.072c0.078,0.091,0.19,0.16,0.295,0.242c0.096-0.086,0.19-0.169,0.286-0.256
		c-0.143-0.043-0.282-0.1-0.433-0.13C770.271,667.924,770.133,668.051,770.15,668.072z"/>
	<path fill="#E81D26" d="M812.479,664.46c0.013,0.073,0.27,0.118,0.416,0.174c0.087-0.104,0.178-0.208,0.265-0.312
		c-0.143-0.062-0.29-0.122-0.435-0.179C812.634,664.247,812.457,664.369,812.479,664.46z"/>
	<path fill="#E81D26" d="M812.765,701.81c0.005,0.169,0.161,0.246,0.407,0.187c0.074-0.018,0.119-0.108,0.179-0.165
		c-0.034-0.165-0.179-0.244-0.425-0.191C812.856,701.657,812.765,701.753,812.765,701.81z"/>
	<path fill="#E81D26" d="M829.165,700.837c-0.017,0.065-0.082,0.147-0.048,0.187c0.044,0.053,0.182,0.096,0.26,0.087
		c0.304-0.058,0.335-0.17,0.088-0.282C829.398,700.798,829.265,700.832,829.165,700.837z"/>
	<path fill="#E81D26" d="M848.364,647.088c-0.138-0.074-0.273-0.152-0.411-0.222c-0.098,0.101-0.284,0.218-0.257,0.296
		c0.03,0.086,0.246,0.143,0.382,0.212C848.174,647.278,848.269,647.184,848.364,647.088z"/>
	<path fill="#E81D26" d="M821.993,702.034c0.053,0.053,0.136,0.152,0.152,0.145c0.157-0.049,0.304-0.114,0.456-0.179
		c-0.053-0.048-0.104-0.095-0.156-0.147C822.293,701.913,822.146,701.974,821.993,702.034z"/>
	<polygon fill="#E81D26" points="800.284,704.623 800.193,704.521 800.103,704.625 	"/>
	<path fill="#E81D26" d="M815.812,692.681c-0.017,0.038,0.065,0.096,0.104,0.143c0.074-0.03,0.147-0.06,0.227-0.091
		c-0.039-0.048-0.083-0.096-0.121-0.143C815.947,692.619,815.83,692.641,815.812,692.681z"/>
	<path fill="#E81D26" d="M804.868,693.448c-0.025,0.036,0.083,0.144,0.083,0.144c0.273-0.017,0.317-0.1,0.139-0.226
		C805.012,693.393,804.899,693.41,804.868,693.448z"/>
	<polygon fill="#E81D26" points="815.447,695.271 815.234,695.25 815.287,695.393 	"/>
	<path fill="#E81D26" d="M817.266,697.343c-0.082-0.019-0.178-0.065-0.242-0.049c-0.227,0.065-0.281,0.187-0.14,0.318
		c0.043,0.038,0.179,0.068,0.244,0.051C817.349,697.604,817.389,697.485,817.266,697.343z"/>
	<polygon fill="#E81D26" points="830.662,695.284 830.883,695.315 830.832,695.163 	"/>
	<path fill="#E81D26" d="M824.064,695.502c0.018,0,0.087-0.105,0.125-0.147c-0.065-0.044-0.178-0.121-0.187-0.117
		C823.791,695.358,823.812,695.454,824.064,695.502z"/>
	<polygon fill="#E81D26" points="817.336,689.212 817.553,689.181 817.418,689.077 	"/>
	<path fill="#E81D26" d="M820.314,701.093c0.047,0.018,0.195-0.025,0.246-0.069c0.044-0.034,0.013-0.108,0.013-0.108
		c-0.081-0.074-0.19-0.121-0.251-0.1C820.096,700.894,820.092,701.006,820.314,701.093z"/>
	<path fill="#E81D26" d="M812.36,692.424c-0.183,0.161-0.117,0.242,0.165,0.229c0.031-0.06,0.105-0.138,0.074-0.178
		C812.57,692.438,812.379,692.407,812.36,692.424z"/>
	<path fill="#E81D26" d="M817.544,699.145c-0.073-0.019-0.147-0.031-0.221-0.044c-0.021,0.047-0.087,0.135-0.065,0.152
		C817.448,699.353,817.553,699.312,817.544,699.145z"/>
	<polygon fill="#E81D26" points="824.732,697.398 824.524,697.412 824.62,697.521 	"/>
	<path fill="#E81D26" d="M826.104,700.854c-0.005,0.108-0.021,0.223,0,0.331c0,0,0.165,0.013,0.252,0.021
		c0.004-0.112,0.017-0.225,0-0.334C826.356,700.871,826.191,700.858,826.104,700.854z"/>
	<path fill="#E81D26" d="M779.979,652.263c-0.227-0.104-0.379-0.049-0.382,0.144c0,0,0.117,0.086,0.183,0.125
		c0.081-0.03,0.208-0.048,0.242-0.096S780.029,652.283,779.979,652.263z"/>
	<path fill="#E81D26" d="M776.436,662.033c0.126,0.069,0.27,0.121,0.408,0.183c0.044-0.062,0.082-0.117,0.127-0.178
		c-0.032-0.161-0.17-0.222-0.4-0.161C776.506,661.898,776.423,662.025,776.436,662.033z"/>
	<polygon fill="#E81D26" points="852.237,656.916 852.072,656.98 852.228,657.041 	"/>
	<path fill="#E81D26" d="M771.393,658.969c0.06,0.049,0.116,0.131,0.19,0.139c0.242,0.018,0.386-0.073,0.365-0.234
		c-0.005-0.052-0.108-0.121-0.183-0.13C771.514,658.721,771.384,658.809,771.393,658.969z"/>
	<polygon fill="#E81D26" points="769.451,658.648 769.321,658.734 769.491,658.765 	"/>
	<path fill="#E81D26" d="M767.163,660.992c-0.047,0.039-0.072,0.121-0.042,0.164c0.095,0.14,0.237,0.135,0.352-0.008
		c0.025-0.035-0.057-0.104-0.092-0.152C767.308,660.992,767.19,660.97,767.163,660.992z"/>
	<path fill="#E81D26" d="M855.023,654.75c-0.025-0.044-0.152-0.053-0.235-0.079c-0.068,0.049-0.19,0.101-0.19,0.101
		c0,0.234,0.152,0.282,0.373,0.164C855.027,654.906,855.054,654.801,855.023,654.75z"/>
	<path fill="#E81D26" d="M766.881,634.26c-0.154-0.017-0.312-0.039-0.468-0.043c-0.013,0-0.043,0.104-0.065,0.156
		c0.156,0.018,0.312,0.043,0.47,0.048C766.83,634.421,766.86,634.316,766.881,634.26z"/>
	<path fill="#E81D26" d="M849.276,632.359c0.021-0.057,0.044-0.109,0.065-0.165c-0.083-0.009-0.161-0.022-0.244-0.034
		c-0.021,0.056-0.078,0.13-0.048,0.155C849.085,632.351,849.197,632.346,849.276,632.359z"/>
	<polygon fill="#E81D26" points="847.01,640.928 846.854,640.881 846.832,640.984 	"/>
	<polygon fill="#E81D26" points="767.094,648.264 767.002,648.368 767.182,648.363 	"/>
	<polygon fill="#E81D26" points="847.779,633.796 847.787,633.957 847.987,633.873 	"/>
	<path fill="#E81D26" d="M759.91,625.326c-0.044,0.166,0.087,0.227,0.325,0.144c0.057-0.017,0.074-0.1,0.114-0.151
		c-0.079-0.035-0.148-0.087-0.227-0.087C760.049,625.231,759.919,625.287,759.91,625.326z"/>
	<path fill="#E81D26" d="M788.486,602.016c0.047-0.033,0.018-0.121,0.021-0.186c-0.087-0.018-0.183-0.065-0.257-0.049
		c-0.068,0.019-0.165,0.102-0.155,0.148C788.13,602.117,788.287,602.156,788.486,602.016z"/>
	<polygon fill="#E81D26" points="793.452,676.389 793.513,676.255 793.313,676.293 	"/>
	<polygon fill="#E81D26" points="799.933,675.49 800.042,675.629 800.185,675.485 	"/>
	<path fill="#E81D26" d="M768.657,605.198c-0.048-0.013-0.169,0.034-0.218,0.074c-0.034,0.034-0.009,0.095-0.013,0.147
		c0.083,0.008,0.178,0.043,0.235,0.018C768.857,605.363,768.853,605.264,768.657,605.198z"/>
	<path fill="#E81D26" d="M807.234,676.284c0.069-0.1,0.104-0.212,0.152-0.317c-0.161,0-0.322,0-0.481,0.006
		c0.025,0.1,0.029,0.204,0.087,0.299C807.009,676.298,807.226,676.302,807.234,676.284z"/>
	<path fill="#E81D26" d="M834.152,674.727c-0.026,0.053-0.087,0.138-0.064,0.152c0.19,0.104,0.295,0.064,0.291-0.109
		C834.3,674.756,834.227,674.743,834.152,674.727z"/>
	<path fill="#E81D26" d="M784.441,687.307c-0.166,0.155-0.102,0.27,0.155,0.286c0.069,0.004,0.205-0.074,0.222-0.121
		c0.021-0.053-0.065-0.122-0.104-0.183C784.623,687.294,784.476,687.271,784.441,687.307z"/>
	<path fill="#E81D26" d="M800.923,686.412c-0.143-0.053-0.286-0.117-0.443-0.144c-0.056-0.009-0.225,0.104-0.225,0.104
		c0.087,0.108,0.19,0.195,0.286,0.282C800.671,686.577,800.797,686.494,800.923,686.412z"/>
	<path fill="#E81D26" d="M776.31,690.883c-0.064,0.03-0.168,0.058-0.186,0.096c-0.019,0.034,0.06,0.087,0.094,0.13
		c0.07-0.03,0.136-0.06,0.205-0.092C776.388,690.975,776.35,690.932,776.31,690.883z"/>
	<polygon fill="#E81D26" points="783.621,690.414 783.621,690.254 783.426,690.336 	"/>
	<polygon fill="#E81D26" points="770.098,595.991 769.843,595.995 769.968,596.139 	"/>
	<path fill="#E81D26" d="M779.855,690.361c-0.025-0.156-0.159-0.187-0.328-0.068c-0.045,0.026-0.014,0.101-0.019,0.155
		c0.073,0.014,0.156,0.053,0.218,0.04C779.782,690.476,779.86,690.401,779.855,690.361z"/>
	<path fill="#E81D26" d="M831.274,681.067c-0.065,0.023-0.144,0.136-0.131,0.145c0.109,0.065,0.235,0.112,0.356,0.165
		c0.013-0.1,0.031-0.199,0.017-0.295C831.517,681.082,831.339,681.046,831.274,681.067z"/>
	<path fill="#E81D26" d="M833.514,681.142c0.218,0.118,0.33,0.07,0.322-0.121c-0.087-0.013-0.17-0.025-0.257-0.04
		C833.554,681.038,833.488,681.129,833.514,681.142z"/>
	<polygon fill="#E81D26" points="859.682,678.451 859.733,678.295 859.494,678.343 	"/>
	<path fill="#E81D26" d="M780.456,687.084c0.025,0.036,0.138,0.04,0.208,0.058c0.048-0.048,0.131-0.096,0.131-0.145
		c0.004-0.047-0.07-0.125-0.127-0.125C780.438,686.851,780.352,686.938,780.456,687.084z"/>
	<path fill="#E81D26" d="M812.648,669.344c0.025-0.043-0.04-0.112-0.065-0.174c-0.161,0.025-0.327,0.057-0.49,0.087
		c0.03,0.057,0.03,0.136,0.091,0.165C812.36,669.526,812.543,669.496,812.648,669.344z"/>
	<path fill="#E81D26" d="M775.968,672.518c-0.044-0.018-0.174,0.017-0.218,0.055c-0.039,0.032-0.018,0.096-0.018,0.096
		c0.074,0.07,0.17,0.109,0.223,0.092C776.146,672.691,776.154,672.591,775.968,672.518z"/>
	<path fill="#E81D26" d="M807.66,668.697c-0.07,0.021-0.174,0.038-0.195,0.073s0.047,0.13,0.078,0.126
		C807.776,668.884,807.821,668.81,807.66,668.697z"/>
	<path fill="#E81D26" d="M836.856,666.965c0.087,0.013,0.179,0.025,0.266,0.039c0.029-0.061,0.06-0.117,0.091-0.178
		c-0.091-0.014-0.199-0.057-0.256-0.035C836.896,666.816,836.887,666.904,836.856,666.965z"/>
	<path fill="#E81D26" d="M818.959,664.79c-0.039-0.169-0.19-0.2-0.377-0.079c-0.044,0.031-0.018,0.113-0.022,0.17
		c0.082,0.018,0.174,0.053,0.247,0.039C818.873,664.907,818.968,664.829,818.959,664.79z"/>
	<polygon fill="#E81D26" points="813.95,670.412 814.175,670.446 814.141,670.307 	"/>
	<polygon fill="#E81D26" points="768.805,674.448 768.891,674.309 768.696,674.326 	"/>
	<polygon fill="#E81D26" points="769.3,663.727 769.364,663.579 769.16,663.609 	"/>
	<polygon fill="#E81D26" points="767.56,664.877 767.354,664.916 767.498,665.024 	"/>
	<polygon fill="#E81D26" points="814.766,684.146 814.718,684.021 814.562,684.116 	"/>
	<polygon fill="#E81D26" points="827.372,690.354 827.615,690.314 827.45,690.175 	"/>
	<polygon fill="#E81D26" points="776.888,688.782 776.801,688.926 777,688.907 	"/>
	<polygon fill="#E81D26" points="835.107,691.538 835.355,691.517 835.221,691.364 	"/>
	<polygon fill="#E81D26" points="795.966,680.564 796.183,680.548 796.062,680.412 	"/>
	<polygon fill="#E81D26" points="772.942,682.041 773.11,681.945 772.906,681.915 	"/>
	<polygon fill="#E81D26" points="843.354,634.529 843.107,634.564 843.268,634.712 	"/>
	<polygon fill="#E81D26" points="786.732,643.225 786.719,643.099 786.536,643.176 	"/>
	<polygon fill="#E81D26" points="774.07,643.016 774.195,643.125 774.257,642.985 	"/>
	<polygon fill="#E81D26" points="853.088,651.637 853.291,651.689 853.274,651.555 	"/>
	<polygon fill="#E81D26" points="831.591,698.753 831.795,698.797 831.773,698.662 	"/>
	<polygon fill="#E81D26" points="777.53,651.562 777.717,651.611 777.704,651.484 	"/>
</g>
<g>
	<polygon fill="#E81D26" points="145.975,674.514 146.183,674.535 146.108,674.349 	"/>
	<path fill="#E81D26" d="M143.313,651.125c-0.847,0.021-1.389,0.5-1.28,1.393c0.069,0.6,0.551,0.825,1.163,0.869
		c0.739-0.078,1.06-0.573,1.077-1.26C144.285,651.529,143.891,651.111,143.313,651.125z"/>
	<path fill="#E81D26" d="M145.25,653.482c-0.074,0.018-0.118,0.13-0.174,0.203c0.143,0.088,0.282,0.188,0.434,0.256
		c0.018,0.009,0.109-0.139,0.161-0.216C145.636,653.508,145.492,653.412,145.25,653.482z"/>
	<path fill="#E81D26" d="M145.158,642.941c-0.273-0.445-0.803-0.619-1.333-0.629c-0.377-0.004-0.529,0.248-0.447,0.621
		c0.295,0.508,0.83,0.564,1.337,0.59C145.071,643.545,145.349,643.246,145.158,642.941z"/>
	<path fill="#E81D26" d="M143.5,669.344c-0.008,0.009,0.105,0.121,0.156,0.19c0.117-0.1,0.235-0.199,0.334-0.308
		c0.009-0.014-0.1-0.127-0.161-0.196C143.717,669.136,143.6,669.231,143.5,669.344z"/>
	<path fill="#E81D26" d="M141.151,657.615c-0.252,0.269-0.343,0.686-0.499,1.041c0.187,0,0.373-0.025,0.551,0.009
		c0.417,0.091,0.707,0.044,0.933-0.069c-0.017,0-0.048,0.008-0.061,0c-0.825-0.417-0.326-1.041-0.265-1.598
		c-0.013-0.009-0.021-0.018-0.03-0.025l0.042-0.044l-0.013,0.069c0.396,0.355,0.89,0.678,0.682,1.271
		c0.287-0.395,0.395-0.972,0.625-1.415c0.13-0.265,0.056-0.686-0.309-0.742C141.659,655.93,141.664,657.072,141.151,657.615z"/>
	<path fill="#E81D26" d="M141.659,663.899c0,0,0.1-0.173,0.069-0.221c-0.034-0.062-0.152-0.073-0.234-0.108
		C141.325,663.774,141.382,663.896,141.659,663.899z"/>
	<path fill="#E81D26" d="M141.859,687.211c-0.013,0.242,0.1,0.286,0.273,0.108c0.022-0.021-0.048-0.134-0.073-0.204
		C141.989,687.149,141.859,687.176,141.859,687.211z"/>
	<path fill="#E81D26" d="M141.603,641.336c-0.13,0.222-0.031,0.356,0.247,0.326c0.069-0.01,0.13-0.123,0.187-0.184
		c-0.064-0.09-0.104-0.207-0.168-0.225C141.79,641.232,141.637,641.275,141.603,641.336z"/>
	<path fill="#E81D26" d="M143.361,646.728c0.452,0.026,0.668-0.399,0.725-0.894c-0.152-0.786-0.729-1.129-1.528-1.138
		c-0.338,0-0.594,0.286-0.542,0.616C142.128,646.068,142.519,646.68,143.361,646.728z"/>
	<g>
		<path fill="#E81D26" d="M272.811,598.088l-37.314,35.117l2.948,8.521c-0.139-0.009-0.304-0.018-0.595-0.052
			c0.334,0.521,0.655,1.037,0.98,1.563c0.043-0.01,0.087-0.014,0.13-0.023l4.536,13.119c-1.51-0.43-3.047-0.686-4.163-0.582
			c0.104,3.286-0.052,3.98,0.521,7.927c2.991,1.264,2.223,2.878,6.984,2.305l1.155,3.343c-0.807,0.887-1.129,1.61-0.747,4.067
			c0.989,0.383,1.832,0.92,2.665,1.471l1.632,4.72c-0.13,0.017-0.256,0.039-0.387,0.057c0.057,0.373,0.118,0.746,0.174,1.119
			c-0.083,0.117-0.125,0.187-0.178,0.27l-43.833-24.035l-25.517,19.286c-0.013-0.004-0.017-0.009-0.025-0.017
			c-0.004,0.017-0.009,0.034-0.009,0.034l-15.328,11.594l8.07-42.54c0.304-0.048,0.607-0.096,0.916-0.144
			c0.083-0.968,0.178-1.931,0.269-2.904c-0.208,0.03-0.417,0.065-0.625,0.101l0.92-4.857l-1.171-0.816v-0.013
			c0.568-0.712,0.238-0.126,0.533-1.229c-0.499-0.108-1.011-0.222-1.511-0.33c-0.187,0.239-0.343,0.382-0.507,0.534l-21.727-15.163
			c0.26-0.1,0.504-0.204,0.833-0.321c-0.026-0.187-0.056-0.369-0.087-0.56c-0.547,0.087-1.089,0.173-1.636,0.26l-16.748-11.69
			l50.832-6.477l2.14-7.031c0.113-0.009,0.147,0,0.295-0.018c-0.035-0.208-0.065-0.421-0.1-0.629l6.923-22.769
			c0.634-0.1,1.268-0.2,1.897-0.3c0.087-0.963,0.187-1.936,0.273-2.904c-0.425,0.07-0.842,0.135-1.259,0.201l4.736-15.576
			l11.794,24.99c-0.187,0.03-0.374,0.061-0.561,0.088c0.118,0.703-1.167,1.284,0.265,1.675c0.13,0.339,0.456-0.229,0.729-0.838
			l9.641,20.429l4.949-0.096c0.082,0.113,0.16,0.221,0.264,0.373c0.23-0.039,0.478-0.074,0.712-0.113
			c-0.013-0.091-0.025-0.186-0.043-0.277L272.811,598.088z"/>
		<path fill="#E81D26" d="M142.996,611.396c-0.091-0.563-0.178-1.119-0.265-1.68c-0.481,0.074-0.955,0.147-1.433,0.227
			C142.076,611.653,141.073,610.949,142.996,611.396z"/>
		<path fill="#E81D26" d="M168.916,603.879c0.864,0.395,0.139,0.178,1.511,0.334C169.566,603.813,170.287,604.035,168.916,603.879z"
			/>
		<path fill="#E81D26" d="M163.62,612.156c-0.23,0.035-0.473,0.074-0.712,0.113c-0.03-0.195-0.057-0.373-0.087-0.564
			c-0.95,0.148-1.905,0.295-2.865,0.451c0.091,0.564,0.174,1.116,0.265,1.681c0.959-0.152,1.915-0.3,2.864-0.447
			C163.268,612.973,163.446,612.564,163.62,612.156z"/>
		<path fill="#E81D26" d="M165.772,607.23c-0.23,0.039-0.473,0.072-0.707,0.112c-0.026-0.183-0.057-0.369-0.087-0.556
			c-0.317,0.135-1.25,1.315-1.25,1.315c-0.061-0.343-0.121-0.717-0.182-1.09c-0.239,0.039-0.473,0.074-0.72,0.112
			c0.404,1.281,0.533,1.334,1.072,2.119c1.281-0.561,0.646-0.143,1.346-0.785C165.812,607.75,165.482,608.337,165.772,607.23z"/>
		<path fill="#E81D26" d="M172.098,614.826c-0.417-1.08-0.82-2.166-1.241-3.242c-0.708,0.112-1.428,0.226-2.14,0.339
			c0.056,0.368,0.117,0.746,0.174,1.115c-0.526,0.721-0.383,0.568-0.452,1.788c0.477-0.073,0.95-0.151,1.428-0.226
			C170.739,614.965,170.552,614.857,172.098,614.826z"/>
		<path fill="#E81D26" d="M173.772,625.432c-0.182,0.412-0.355,0.82-0.538,1.232C174.693,627.085,173.812,625.475,173.772,625.432z"
			/>
		<path fill="#E81D26" d="M175.245,606.887c0.239-0.039,0.478-0.078,0.711-0.112c-0.025-0.179-0.056-0.374-0.087-0.557
			c-0.711,0.113-1.423,0.227-2.144,0.339c0.776,1.701-0.227,1.003,1.697,1.45C175.362,607.634,175.305,607.26,175.245,606.887z"/>
		<path fill="#E81D26" d="M202.571,571.105c-0.474,0.073-0.955,0.146-1.433,0.221c-0.277,0.969-0.381,1.433-0.273,2.904
			c0.239-0.039,0.482-0.074,0.712-0.113c0.03,0.191,0.061,0.373,0.091,0.561c1.285-0.561,0.642-0.144,1.341-0.786
			c0.234-0.034,0.478-0.074,0.712-0.112C203.17,572.95,202.914,572.541,202.571,571.105z"/>
		<path fill="#E81D26" d="M200.135,578.927c0.244-0.038,0.482-0.073,0.721-0.112c-0.864-0.396-0.147-0.183-1.519-0.334
			c0.056,0.369,0.117,0.742,0.174,1.115c0.243-0.039,0.473-0.073,0.711-0.108C200.192,579.296,200.166,579.109,200.135,578.927z"/>
		<path fill="#E81D26" d="M201.798,594.115c-0.508-0.104-1.016-0.217-1.519-0.329c-0.026-0.187-0.057-0.373-0.087-0.556
			c-0.235,0.035-0.478,0.074-0.712,0.112c0.117,0.738,0.234,1.485,0.352,2.231C202.049,594.836,201.09,595.68,201.798,594.115z"/>
		<path fill="#E81D26" d="M200.092,634.451c-0.712,0.113-1.424,0.227-2.136,0.34c0.086,0.563,0.173,1.119,0.265,1.68
			c0.712-0.113,1.424-0.227,2.136-0.34C200.27,635.572,200.184,635.016,200.092,634.451z"/>
		<path fill="#E81D26" d="M200.661,582.274c0.36,0.707,0.721,1.415,1.077,2.126c0.469-0.077,0.95-0.151,1.424-0.225
			c-0.061-0.379-0.117-0.747-0.174-1.12c-0.234,0.039-0.478,0.078-0.716,0.113C201.208,581.893,202.553,582.673,200.661,582.274z"/>
		<path fill="#E81D26" d="M199.193,563.621c0.061,0.373,0.117,0.742,0.178,1.121c0.711-0.109,1.419-0.223,2.14-0.34
			c-0.057-0.373-0.113-0.742-0.173-1.119C200.617,563.396,199.905,563.508,199.193,563.621z"/>
		<path fill="#E81D26" d="M195.217,584.853c0.608,0.973,0.126,0.495,0.886,1.007c0.873,0.36,0.677,0.256,2.231,0.222
			c-0.391-1.285-0.534-1.333-1.063-2.122c-1.28,0.555-0.642,0.146-1.342,0.781C195.686,584.779,195.447,584.818,195.217,584.853z"/>
		<path fill="#E81D26" d="M194.245,615.912c0.738,1.037,0.339,2.687,2.409,1.345c0.568-0.72,0.248-0.13,0.539-1.231
			C196.215,615.98,195.226,615.951,194.245,615.912z"/>
		<path fill="#E81D26" d="M192.257,589.323c0.087,0.556,0.174,1.12,0.265,1.681c0.711-0.113,1.428-0.227,2.131-0.334
			c0.517-0.799,0.456-0.721,1.263-1.351c-0.026-0.183-0.056-0.374-0.087-0.556C194.64,588.95,193.446,589.137,192.257,589.323z"/>
		<path fill="#E81D26" d="M186.661,614.248c0.056,0.375,0.118,0.743,0.178,1.117c0.238-0.039,0.468-0.074,0.711-0.113
			c-0.03-0.188-0.061-0.373-0.091-0.561c0.244-0.034,0.474-0.074,0.716-0.112C187.308,614.184,188.033,614.405,186.661,614.248z"/>
		<path fill="#E81D26" d="M183.471,603.297c0.764,1.715-0.23,1.012,1.693,1.459c-0.056-0.374-0.113-0.747-0.174-1.12
			C184.482,603.518,183.97,603.414,183.471,603.297z"/>
		<path fill="#E81D26" d="M175.8,675.49c-0.061-0.374-0.118-0.747-0.178-1.124c-0.477,0.078-0.951,0.152-1.432,0.225
			c0.278,1.546,0.152,0.335-0.365,2.357c0.481-0.078,0.959-0.155,1.433-0.229C175.544,675.603,175.231,676.197,175.8,675.49z"/>
		<path fill="#E81D26" d="M177.411,671.797c-0.859-0.396-0.143-0.179-1.519-0.331C176.751,671.862,176.043,671.648,177.411,671.797z
			"/>
		<path fill="#E81D26" d="M180.163,642.742c0.529-1.098,0.781-1.059,1.072-2.457c-0.473,0.078-0.951,0.152-1.423,0.227
			c-0.794,1.206-0.908,0.616-1.077,2.457C179.208,642.891,179.681,642.816,180.163,642.742z"/>
		<path fill="#E81D26" d="M181.795,671.684c-0.034-0.192-0.061-0.368-0.091-0.56c-0.508-0.105-1.02-0.227-1.519-0.33
			c0.056,0.373,0.118,0.746,0.174,1.115C180.831,671.835,181.313,671.757,181.795,671.684z"/>
		<path fill="#E81D26" d="M182.724,617.157c0.23-0.038,0.473-0.078,0.711-0.112c-0.863-0.391-0.143-0.183-1.519-0.335
			c0.061,0.378,0.118,0.747,0.174,1.116c0.243-0.039,0.482-0.078,0.721-0.113C182.78,617.53,182.755,617.344,182.724,617.157z"/>
		<path fill="#E81D26" d="M185.867,609.218c-0.717-1.081-0.135-1.037-0.977-1.558c-0.057-0.374-0.113-0.747-0.174-1.12
			c-0.72,0.112-1.432,0.226-2.153,0.338c-0.76-1.706,0.238-1.007-1.689-1.445c-0.151,0.591-0.303,1.185-0.451,1.784
			c2.344,0.021,1.164-0.486,2.318,0.781c-1.367,0.842-1.363,0.586-1.879,2.01c0.951-0.152,1.91-0.299,2.865-0.451
			C184.534,607.934,183.705,609.271,185.867,609.218z"/>
		<path fill="#E81D26" d="M186.388,617.148c0.474-0.078,0.951-0.151,1.424-0.226c-0.057-0.364-0.117-0.737-0.174-1.11
			c-0.473,0.072-0.955,0.146-1.428,0.221C186.27,616.41,186.332,616.779,186.388,617.148z"/>
		<path fill="#E81D26" d="M189.14,620.725c-0.026-0.182-0.056-0.373-0.086-0.559c-0.716-0.317-0.886-0.577-1.602-0.895
			C188.22,620.981,187.217,620.279,189.14,620.725z"/>
		<path fill="#E81D26" d="M193.073,659.603c-0.057-0.374-0.118-0.747-0.174-1.12c0,0-1.402,0.113-1.771-0.017
			c0.13,0.273,0.217,0.616,0.425,0.798C192.417,659.664,191.688,659.446,193.073,659.603z"/>
		<path fill="#E81D26" d="M193.707,654.35c-0.474,0.078-0.952,0.152-1.424,0.227c-0.725,0.607-0.577,0.455-2.066,0.895
			c0.296,1.215,0.512,2.126,0.838,2.865c0.047-0.049,0.147-0.105,0.325-0.184c0.231-0.034,0.478-0.073,0.712-0.113
			C193.337,656.494,193.836,656.929,193.707,654.35z"/>
		<path fill="#E81D26" d="M191.401,648.989c0.717-0.108,1.428-0.222,2.14-0.335c-0.091-0.564-0.178-1.119-0.265-1.68
			c-0.717,0.113-1.424,0.221-2.14,0.334C191.228,647.874,191.314,648.43,191.401,648.989z"/>
		<path fill="#E81D26" d="M193.94,632.559c-0.091-0.551-0.177-1.115-0.264-1.667c-1.506,0.421-1.346,0.287-2.058,0.891
			c-0.239,0.034-0.478,0.073-0.716,0.112c0.087,0.564,0.174,1.116,0.261,1.676c1.501-0.426,1.336-0.286,2.058-0.895
			C193.459,632.637,193.693,632.603,193.94,632.559z"/>
		<path fill="#E81D26" d="M196.281,661.387c-0.057-0.378-0.118-0.742-0.174-1.115c-0.239,0.039-0.477,0.078-0.721,0.113
			c-0.668,0.998-0.733,0.555-1.159,1.896c0.239-0.039,0.473-0.074,0.711-0.113C195.638,661.525,195.018,661.951,196.281,661.387z"/>
		<path fill="#E81D26" d="M198.98,650.664c-0.056-0.377-0.117-0.75-0.178-1.123c-0.226,0.034-0.473,0.078-0.703,0.111
			c0.056,0.369,0.117,0.748,0.178,1.121C198.508,650.738,198.755,650.699,198.98,650.664z"/>
		<path fill="#E81D26" d="M201.854,645.625c-0.76-0.504-0.27-0.048-0.891-1.008c-0.742-0.069-1.484-0.146-2.23-0.211
			c-0.582,1.076-1.472,2.334-2.418,3.232c0.608,0.978,0.126,0.504,0.89,1.012c1.077,0.43,2.444,0.187,4.376-0.121
			C201.854,647.57,201.962,647.101,201.854,645.625z"/>
		<path fill="#E81D26" d="M202.119,610.1c-0.03-0.191-0.061-0.379-0.091-0.564c-0.5-0.109-1.007-0.223-1.52-0.33
			c0.061,0.373,0.118,0.742,0.178,1.119C201.164,610.247,201.646,610.173,202.119,610.1z"/>
		<path fill="#E81D26" d="M202.245,592.328c0.244-0.035,0.482-0.074,0.721-0.113c-0.143-0.924-0.291-1.857-0.438-2.787
			c-0.239,0.035-0.478,0.074-0.721,0.113c-0.79,1.203-0.903,0.615-1.072,2.457c0.481-0.074,0.954-0.148,1.423-0.227
			C202.188,591.959,202.219,592.149,202.245,592.328z"/>
		<path fill="#E81D26" d="M204.646,598.248c-0.607-0.973-0.135-0.498-0.885-1.002c0.212,0.777-0.578-0.135-0.634,0.668
			C201.863,598.613,204.646,598.248,204.646,598.248z"/>
		<path fill="#E81D26" d="M245.559,667.359c0.859,0.396,0.139,0.183,1.519,0.335C246.209,667.299,246.939,667.516,245.559,667.359z"
			/>
		<path fill="#E81D26" d="M213.336,588.295c0.117,0.742,0.234,1.488,0.351,2.236c0.712-0.113,1.423-0.227,2.145-0.34
			c-0.087-0.555-0.178-1.119-0.265-1.676c-0.477,0.078-0.958,0.152-1.432,0.227c-0.026-0.187-0.057-0.374-0.087-0.557
			C213.809,588.221,213.57,588.26,213.336,588.295z"/>
		<path fill="#E81D26" d="M209.321,586.063c1.219,0.005,2.435,0,3.664-0.004c-0.087-0.561-0.178-1.112-0.265-1.676
			c-2.175,0.286-2.058-0.144-2.865,0.451C209.294,585.547,209.616,584.961,209.321,586.063z"/>
		<path fill="#E81D26" d="M211.934,611.983c0.238-0.04,0.473-0.074,0.711-0.113c-0.026-0.187-0.056-0.369-0.087-0.556
			c-0.239,0.035-0.473,0.074-0.711,0.113c-0.864-0.399-0.143-0.188-1.515-0.339c0.764,1.715-0.23,1.012,1.693,1.45
			C211.995,612.356,211.964,612.17,211.934,611.983z"/>
		<path fill="#E81D26" d="M210.818,595.566c-0.061-0.374-0.121-0.747-0.178-1.121c-0.239,0.04-0.481,0.074-0.72,0.113
			c0.061,0.373,0.117,0.747,0.178,1.121C210.336,595.64,210.575,595.601,210.818,595.566z"/>
		<path fill="#E81D26" d="M210.697,608.745c1.229,0.517,1.059,0.894,1.424-0.222C211.647,608.598,211.166,608.671,210.697,608.745z"
			/>
		<path fill="#E81D26" d="M209.277,641.597c0.711-0.113,1.433-0.226,2.145-0.339c-0.769-1.71,0.225-1.003-1.698-1.449
			C209.572,640.403,209.429,640.998,209.277,641.597z"/>
		<path fill="#E81D26" d="M214.508,656.229c-1.194,0.187-2.383,0.374-3.568,0.561c0.087,0.556,0.178,1.119,0.265,1.676
			c1.38,0.138,0.651-0.062,1.511,0.329c1.28-0.561,0.638-0.139,1.346-0.781C214.586,657.293,214.435,657.453,214.508,656.229z"/>
		<path fill="#E81D26" d="M216.696,600.354c-0.738-0.065-1.484-0.143-2.231-0.213c-0.147,0.591-0.303,1.186-0.452,1.789
			c1.906,0.373,0.53-0.365,1.611,0.89c0.568-0.716,0.23-0.13,0.538-1.229C216.722,600.875,216.401,601.461,216.696,600.354z"/>
		<path fill="#E81D26" d="M220.507,647.844c0.72-0.113,1.432-0.227,2.153-0.344c-0.087-0.556-0.174-1.119-0.261-1.676
			c-0.725,0.113-1.437,0.227-2.153,0.339C220.333,646.719,220.42,647.287,220.507,647.844z"/>
		<path fill="#E81D26" d="M227.9,657.55c-0.205-1.303-0.408-2.605-0.613-3.911c-1.888-0.383-2.244-0.273-3.208-1.78
			c-0.243,0.035-0.482,0.073-0.716,0.108c-0.217,3.242-2.257,3.082-1.806,7.154c0.759,0.508,0.273,0.047,0.885,1.007
			c0.955-0.152,1.915-0.3,2.865-0.452C226.038,658.148,225.542,658.322,227.9,657.55z"/>
		<path fill="#E81D26" d="M228.386,604.812c-0.031-0.183-0.061-0.369-0.087-0.556c-0.773-0.261-1.554-0.521-2.322-0.773
			c0.399,1.276,0.525,1.324,1.063,2.114c0.247-0.039,0.481-0.078,0.721-0.117c-0.03-0.183-0.061-0.369-0.087-0.556
			C227.904,604.891,228.151,604.851,228.386,604.812z"/>
		<path fill="#E81D26" d="M232.075,665.476c-0.312-1.45-0.59-1.845-1.15-2.679c-0.234,0.039-0.478,0.078-0.711,0.113
			c0.025,0.183,0.061,0.378,0.087,0.556c-0.547,0.765-0.439,1.021-0.37,2.349C230.652,665.701,231.364,665.589,232.075,665.476z"/>
		<path fill="#E81D26" d="M233.196,644.696c-0.056-0.373-0.118-0.747-0.174-1.12c-0.473,0.074-0.951,0.146-1.432,0.226
			c0.061,0.373,0.117,0.746,0.178,1.12C232.245,644.844,232.727,644.771,233.196,644.696z"/>
		<path fill="#E81D26" d="M246.492,612.834c-0.121-0.738-0.234-1.484-0.356-2.232c-0.23,0.041-0.468,0.074-0.703,0.113
			c-0.981,1.034-1.298,0.578-1.888,2.015c0.243-0.039,0.481-0.077,0.721-0.112C245.137,612.973,244.942,612.873,246.492,612.834z"/>
		<path fill="#E81D26" d="M246.691,604.795c-0.772-0.265-1.549-0.521-2.317-0.786c-0.795,1.206-0.903,0.621-1.077,2.462
			c1.389,0.139,0.651-0.061,1.52,0.334c1.271-0.557,0.638-0.14,1.337-0.781C246.731,605.307,246.392,605.897,246.691,604.795z"/>
		<path fill="#E81D26" d="M247.594,601.218c-0.03-0.187-0.06-0.373-0.086-0.565c-0.742-0.068-1.493-0.142-2.231-0.211
			c0.057,0.368,0.113,0.741,0.174,1.115C246.162,601.443,246.882,601.331,247.594,601.218z"/>
		<path fill="#E81D26" d="M254.618,613.276c0.244-0.034,0.482-0.073,0.712-0.108c0.144-1.146-1.159-0.238-0.173-1.115
			c-0.86-0.408-0.139-0.191-1.515-0.343c-0.876-0.356-0.682-0.257-2.24-0.218c0.812,1.402,0.986,1.385,2.505,1.897
			c0.03,0.183,0.061,0.369,0.086,0.556c0.235-0.035,0.474-0.074,0.712-0.113C254.679,613.646,254.648,613.459,254.618,613.276z"/>
		<path fill="#E81D26" d="M258.121,602.993c0.524-0.721,0.377-0.56,0.456-1.788c-1.354-0.34-1.285-0.543-3.03-0.664
			c-0.265,0.906-0.36,1.006-0.37,2.344c0.239-0.035,0.474-0.074,0.721-0.113c0.026,0.183,0.057,0.373,0.087,0.556
			C258.025,602.949,256.91,602.594,258.121,602.993z"/>
	</g>
</g>
</svg>
