<?xml version="1.0" encoding="utf-8"?>
<!-- Generator: Adobe Illustrator 16.0.0, SVG Export Plug-In . SVG Version: 6.00 Build 0)  -->
<!DOCTYPE svg PUBLIC "-//W3C//DTD SVG 1.1//EN" "http://www.w3.org/Graphics/SVG/1.1/DTD/svg11.dtd">
<svg version="1.1" id="Layer_1" xmlns="http://www.w3.org/2000/svg" xmlns:xlink="http://www.w3.org/1999/xlink" x="0px" y="0px"
	 width="1024px" height="1024px" viewBox="0 0 1024 1024" enable-background="new 0 0 1024 1024" xml:space="preserve">
<path fill="#E81D26" d="M671.496,515.104l263.758-313.406c21.722-24.824,34.134-52.752,34.134-83.782
	c0-34.134-12.412-62.061-34.134-83.782s-49.648-31.03-83.782-31.03c-31.03,0-58.957,9.309-83.782,31.03L513.24,335.127
	L258.792,34.133c-21.722-21.722-49.648-31.03-83.782-31.03c-31.03,0-58.957,9.309-83.782,31.03
	c-21.722,24.823-31.03,52.752-31.03,83.782c0,34.133,9.309,62.061,31.03,83.782l263.758,313.406L91.228,822.303
	c-21.722,24.824-31.03,52.752-31.03,83.782c0,34.134,9.309,62.061,31.03,83.782s49.648,31.03,83.782,31.03
	c31.03,0,58.957-9.309,83.782-31.03L513.24,688.873l254.449,300.994c21.722,21.722,49.648,31.03,83.782,31.03
	c31.03,0,58.958-9.309,83.782-31.03c21.722-24.823,34.134-52.752,34.134-83.782c0-34.134-12.412-62.061-34.134-83.782
	L671.496,515.104z"/>
</svg>
